<svg xmlns="http://www.w3.org/2000/svg" viewBox="0 0 436.5 430.29"><defs><style>.cls-1,.cls-2{fill:none;stroke:red;}.cls-1{stroke-linecap:round;stroke-linejoin:round;stroke-width:0.5px;}.cls-2{stroke-miterlimit:10;stroke-width:0.25px;}</style></defs><g id="Layer_2" data-name="Layer 2"><g id="walls"><path id="stroke" class="cls-1" d="M299.39,337.09v8.49h-3v-8.49Zm0,23.65h5.89v-3h-5.89v-3.5h-3v4.25H267.09v-8.43h-2.23v10.66Zm-21.05-36.57v-1.49H267.09V288.09h-2.23v55.17h2.23V324.17Zm13.1,83.8H281v-3h5.25V376.61H267.09v5.2h-2.23v-5.2h-3.41v-2.24h30.92v2.24h-4.61V405h3.68Zm-24.35-5.21h-2.23V408H251.23V376.61h3.4v-2.24H238.89v2.24H249V408h-3v3h18.84v2.17h3V408h4.5v-3h-5.25ZM307.48,408h-7.36v-3h7.36Zm36.35-47.23v-3H332.3v3Zm-29.88,0v-3h11.53v3Zm92.3-38.43h15.87v20.58h-3V324.54H405.51v4.8h-2.24v-9.76h3Zm-17,82.68h-3.94v3h3.94v3h12v-3H391.5v-19.9h7.93v-1.49H391.5v-10H394v-2.24h-7.19v2.24h2.48Zm-12.62,3v-3h-7.87v3Zm37.53-21.39h-7.93v1.49h27v1.65h3v-4.78h-3v1.64h-17.6v-6.53h-1.49Zm0-23.61h-8.67v13.64h-4.72v-2.24h2.48V336.16h2.24v24.58h13.63v-9.18h3v12.15h14.13v12.55h-3v-9.57h-17.6v6.54h-1.49Zm-61.67-5.21H359v-3.5h3v6.48h-9.48ZM359,345.58v-8.49h3v8.49Zm-73.86-21.41h11.25v4.24h3v-8.83h-3v3.1H285.16Zm11.25-13.27h3v-6.2h-3Zm0-14.87h3v-6.2h-3ZM403.27,310.9h3v-6.2h-3Zm0-14.87h3v-6.2h-3ZM359,310.9v-6.2h3v6.2ZM319.84,405V376.61H299.19v-2.24h22.88V405h13.64V374.37H380v2.24h-23.8v7.19h-1.49v-7.19H337.94V405h4v3H316.16v-3Zm30.81,3h9.45v-3h-3.93V390.61h-1.49V405h-4Zm82.62-9.57V408h-9.76v3h12.74V398.4Zm-18.44,12.54v-3h-4.89v3ZM224.14,430h10.1v-3h-10.1Zm40.72-5.15v2.17H246v3h21.82v-5.15Zm-30.62-13.95v-3h-10.1v3Zm-10.1-50.2v-7.07h3v7.07Zm0,15.87v-2.24h3v2.24Zm27.09-20.34v-3.71h-3.72v1.11h-8.62v7.07h12.34v-8.18m0-62v3.72m0,11.78v3.72m0,11.77v3.72m0,11.78v3.72m-10.48-31h-1.12v-3.72h1.12V294.29h-1.12v-3.72h3.72v1.12h4.16v-1.12h3.72v3.72h-3.72v-1.12h-4.16v1.12h-1.11v11.78h1.11v1.11h4.16v-1.11h3.72v3.72h-3.72v-1.12h-4.16v1.12h-1.11v11.77h1.11v1.12h4.16v-1.12h3.72v3.72h-3.72v-1.11h-4.16v1.11h-1.11v11.78h1.11v1.12h4.16v-1.12h3.72v3.72h-3.72v-1.12h-4.16v1.12h-3.72v-1.12H227.86v1.12h-3.72v-3.72h1.11V325.28h-1.11v-3.72h3.72v1.12h11.77v-1.12h1.12ZM296.41,267v-2H292v-2.66a8.64,8.64,0,0,0,5.23-4.78h2.19V267Zm-94.15,144v-3h10.1v3Zm10.1,19.1h-10.1v-3h10.1Zm0-69.3v-7.07h-3v7.07Zm0,15.87v-2.24h-3v2.24Zm-40.72,48.28v2.17h18.84v3H168.66v-5.15Zm13.63-134.32v3.72m0,11.78v3.72m0,11.77v3.72m0,11.78v3.72m10.48-31h1.12v-3.72h-1.12V294.29h1.12v-3.72h-3.72v1.12H189v-1.12h-3.72v3.72H189v-1.12h4.16v1.12h1.11v11.78h-1.11v1.11H189v-1.11h-3.72v3.72H189v-1.12h4.16v1.12h1.11v11.77h-1.11v1.12H189v-1.12h-3.72v3.72H189v-1.11h4.16v1.11h1.11v11.78h-1.11v1.12H189v-1.12h-3.72v3.72H189v-1.12h4.16v1.12h3.72v-1.12h11.77v1.12h3.72v-3.72h-1.11V325.28h1.11v-3.72h-3.72v1.12H196.87v-1.12h-1.12Zm-37.59,14.38v-1.49h11.25V288.09h2.23v55.17h-2.23V324.17ZM30.25,322.31H14.38v20.58h3V324.54H31v4.8h2.24v-9.76h-3Zm121.09,1.86H140.09v4.24h-3v-8.83h3v3.1h11.25ZM140.09,310.9h-3v-6.2h3Zm0-14.87h-3v-6.2h3Zm45.18,60.24v-3.71H189v1.11h8.62v7.07H185.27v-8.18m-62.72,8.18v-3H111v3Zm14.56,0h-5.89v-3h5.89v-3.5h3v4.25h29.32v-8.43h2.23v10.66Zm0-23.65v8.49h3v-8.49Zm-59.63,8.49v-8.49h-3v8.49ZM84,357.76H77.48v-3.5h-3v6.48H84ZM21.67,410.94v-3h4.89v3ZM129,408h7.36v-3H129Zm40.39-5.21h2.23V408h13.63V376.61h-3.41v-2.24h15.75v2.24h-10.1V408h3v3H171.64v2.17h-3V408h-4.5v-3h5.25ZM59.85,408v-3h7.87v3Zm56.81-3V376.61h20.65v-2.24H114.43V405H100.79V374.37H56.53v2.24h23.8v7.19h1.49v-7.19H98.56V405h-4v3h25.81v-3Zm-24-44.25v-3H104.2v3ZM85.85,408H76.4v-3h3.93V390.61h1.49V405h4Zm-38.62-3h3.94v3H47.23v3h-12v-3H45v-19.9H37.07v-1.49H45v-10H42.52v-2.24h7.19v2.24H47.23ZM22.32,386.58h7.93v1.49h-27v1.65h-3v-4.78h3v1.64h17.6v-6.53h1.49ZM3.23,398.4V408H13v3H.25V398.4ZM145.06,408h10.42v-3h-5.25V376.61h19.18v5.2h2.23v-5.2h3.41v-2.24H144.13v2.24h4.61V405h-3.68ZM22.32,363H31v13.64h4.72v-2.24H33.23V336.16H31v24.58H17.36v-9.18h-3v12.15H.25v12.55h3v-9.57h17.6v6.54h1.49Zm117.77-96v-2h4.44v-2.66a8.64,8.64,0,0,1-5.23-4.78h-2.19V267Zm-19.48-41.84v2.23h-4.45v12.17h3.52v3h-6.49V195.14h6.49v3h-3.52v27h0m55.47,28.46c-.62-.41-1.24-.82-1.85-1.25A85.59,85.59,0,0,1,156.47,241h-6.59v4.46h3.75a8.61,8.61,0,0,1,2.68,16.8v2.66h10.86v10.89H140.09v-2h-3v7.37h3v-3.1h29.32v3.22h2.23v-9.41h3.41v-3h-3.41V253.57M177,171.62a3.66,3.66,0,1,0-3.65,3.66A3.64,3.64,0,0,0,177,171.62Zm-3.7,9.49,9.39-9.52v9.52Zm93.5-9.49a3.66,3.66,0,1,0-3.65,3.66A3.64,3.64,0,0,0,266.78,171.62Zm-3.6,9.49-9.4-9.52v9.52Zm-131.31,44h-4.44m3.55-30h-2.62v3h9.5v16.65h-6v10.36h-4.44v2.23h9.68V230h3v-2.67h15.66v-2.23H140.09V185.57h9v-3h-12v12.55Zm0,47.36h6.13v8.17h2.19a8.62,8.62,0,0,1,3.76-4.13V241h-3v-4.17h-3v2.68h-8.75v3Zm56.53,4.35a72.36,72.36,0,0,0,22.66,6.45,72.77,72.77,0,0,0,16.16,0V237.15H228v-2.23H200.32V221.77h-1.48v13.15H185.27v-8.69H169.41V185.57h17.72V168H189v-3H166.86v17.6h-9.05v3h9.36v39.55h-4.6v2.23a71.9,71.9,0,0,0,14.65,13.54c.61.43,1.22.84,1.85,1.25,2,1.3,4.08,2.51,6.2,3.6v23.15h-3.41v3h3.41v6.93H189v-1.11h4.16v1.11h3.72v-1.11h1.48a4.66,4.66,0,0,1,0-1.49,4.46,4.46,0,1,1,8.8,1.49h1.49v1.11h1.12v11.78h-1.12v3.72h1.12v11.78h-1.12v3.72h3.72v-1.12h11.78v1.12h3.72v-3.72h-1.12V294.29h1.12v-3.72h-1.12V278.79h1.12v-1.11h1.49a4.15,4.15,0,0,1,0-1.49,4.46,4.46,0,1,1,8.8,1.49h1.48v1.11h3.72v-1.11h4.16v1.11h3.72v-6.93h3.4v-3h-3.4v-8.11a85.52,85.52,0,0,1-63.72.89ZM211.28,168v3.62h1.49V168h1.14v-3h-3.77v3Zm-9.82-3H197.7v3h1.14v47h1.48V168h1.14Zm67.87,46.61v-26h9.35v-3h-9.05V165H247.48v3h1.89v17.6h1.48v26h1.49v-26h14.75V215h2.24m74.87-16.84h-6.13v41.41h6.13v3h-9.11V195.14h9.11Zm-56.84-15.52v3h9.05v16h2.21l0-3.41h6.88v-3h-6.13V182.59Zm11.19,29.15,0-3.4h-2.16v7.43h2.11v-2.53h21.81v26.28H314.2v3h9.11V195.14H314.2v3h6.14v13.64H298.55Zm-29.22,10v3.35h27.08v-2.53h2.06l-.06,7.43h-2v-2.67H273.93a71.9,71.9,0,0,1-14.65,13.54l7.44,11.44A85.59,85.59,0,0,0,280,241h6.59v4.46h-3.75a8.61,8.61,0,0,0-2.68,16.8v2.66H269.33v10.89h27.08v-2h3v7.37h-3v-3.1H267.09v3.22h-2.23v-9.41h-3.41v-3h3.41V253.57l-7.43-11.43a71.68,71.68,0,0,1-20.88,9.24v-5.95H238v3.31a72,72,0,0,0,11.7-4.48v-7.11H238v3.32h-1.49v-3.32h-1.7v-2.23h16.38v-8.69h15.86v-4.46h2.24v3.35m29,11.72v2.68h7.17v3h-6.13v8.17H297.2a8.62,8.62,0,0,0-3.76-4.13V241h3v-4.17Zm63.63.57v2.48h13.64v2.23H362v7.62h-3V242.5h-6.14v-3h6.88v-2.11Zm0,37.3v6.44h-3v-6.44Zm13.64-68.29v-1.49H359.76v25.66H362v-2.48h13.64v-2.23H362V206.42Zm13.64,35.7h-6.82v-2.23h6.82v-2.48h2.23V360.74h-2.23v-36.2H362v3.87h-3v-8.83h3v2.73h27.28V293.17h-6.82v-1.48h6.82V263h-6.82v-1.49h6.82Zm17-2.85h-3v10.47h3Zm0,26.76v-7.61h-3V266Zm-3,8.68h3v6.44h-3ZM374.88,357V340h-1.11v-3.71h3.72V340h-1.12v17h1.12v3.72h-3.72V357ZM60.13,357V340H59v-3.71h3.72V340H61.61v17h1.12v3.72H59V357ZM238.8,165H235v3h1.14v3.62h1.48V168h1.14Zm-12.44,0h-3.77v3h1.14v3.62h1.49V168h1.14Zm179.89,48.09h-3v-8.26h3Zm0-16.94h-3v-8.25h3Zm0-16.93h-3V171h3ZM375.63,291.69v1.48H362V296h-3v-6.2h3v1.86ZM362,266V263h13.64v-1.49H362v-3.06h-3V266Zm0-77.09v9.17h-9.11v-3H359v-6.2Zm0-8.68h-3v-6.2h3Zm0-14.87h-3v-6.2h3Zm42-72.31V93m-41.58-1-3.25-.32m49.54,67.94h-2.48v2.64h-3V154h3v2.64h2.48Zm-7-63.78,4.76.46M347.3,90.53l3.25.32m44.07,28.89,9.4.92v18.45L390.09,135Zm-14.85,14.47.63-2.14,7.55,2.25,11.52-38.69-1.4-.14.28-3,8.43.82-.29,3-4.76-.46-4.87,16.34-.74,2.48-.43,1.46-.43,1.45L409.89,119l-.22,2.21-3.42-.33v24.46h-3v-4.13Zm6.86-39.84,2.8.28.29-3-2.8-.27Zm-27.15-5.64-.29,3,3.25.32.29-3Zm-61,8.91L302.81,83l.74.22,1.31.39.85-2.85-5.52-1.64L299.34,82l2.07.62-4.34,14.59Zm14,14.22-2.94-.88,7.09-23.82,2.05.61.85-2.85L314,83.28l-.85,2.85,2.05.61-7.09,23.82-2.94-.88-.64,2.14,7.3,2.17ZM326.32,116l-2.94-.87,7.09-23.82,2,.61.85-2.86-5.52-1.64L327,90.24l2.05.61L322,114.68,319,113.8l-.64,2.14,7.3,2.17ZM354,142l.85-2.85L391.5,150v75.89h11.77v-4.12h3v8.83h-3v-2.48H391.5v2.48h-2.23v-2.48h-6.82v-2.23h6.82V206.42h-6.82v-1.49h6.82v-52.5L362,144.31v6.2h-3v-7.08Zm-13.29-4,.85-2.85,5,1.48-.85,2.85Zm-13.28-4,.84-2.86,5,1.48-.85,2.86Zm14.21-42.53,2.76.82,1.47-4.92,4.93.48-.29,3-3.25-.32-8.66,29.11,9.5,2.83-.63,2.14-15.29-4.55.63-2.14L336.5,119l7.09-23.82-2.75-.82Zm29.4,1.34.29-3,6.91.68-.29,3-1.4-.14-10.27,34.49,7.55,2.25-.64,2.14L354,126.56l.64-2.14,9.5,2.83,10.15-34.08-3.25-.32,3.25.32m45.56,4.45-4.76-.46,4.76.46V120l-3.21-.31-.22,2.2,3.43.34v34.45h-2.48v3h5.45V94.92l-7.45-.73-.28,3M291.72,120.29l4.23,1.26m23.2,10-15.73-4.68.85-2.86L320,128.71Zm-70-67.6-1.27,4.28L245,67.39l1.27-4.28Zm14.53,9-2.85-.84,1.27-4.28,2.85.85Zm-10.24,34.4-1.27,4.28-2.86-.85,1.28-4.28ZM242.46,76l-1.27,4.28,2.85.85,1.27-4.28Zm-3.84,12.9-1.27,4.27,2.85.85,1.27-4.27Zm19.64-8.19L257,85l2.85.85,1.27-4.28ZM254.43,93.6l-1.28,4.28,2.85.85,1.28-4.28ZM291,120.07l5,1.48-.85,2.85-5-1.48Zm-9.17.37.85-2.85-2.73-.81-8.32-2.48L260.5,111l-.85,2.85,11.11,3.3,8.32,2.48Zm-48.3-14.37,1.28-4.28,2.85.85-1.28,4.27-2.85-.84m-37.18,2.57,4.59-1.39-.87-2.85-1.68.51L195,93.83,199,95l.63-2.14-9.18-2.73-.63,2.13,2.64.79,3.8,12.5-.77.23Zm20-27.53-2.14-.64-.59,2-3.49-1-.64,2.14,17.87,5.32L224,100.14l-17.87-5.33L205.51,97l3.5,1,1,3.38-1.68.51.86,2.85,9.8-3,7,2.09.85-2.85,3.36-11.29,1.21-4.1-2.85-.85-.58,2-12.24-3.64ZM112,41.46l1-2,2.29,1.2.72-1.37,2,1-.72,1.37,19.87,10.38,2,1,17.56,9.17,1.07,3.5,7.14,2.13-1.35,4.54-3.45,1-2.13.65-1.52-5a13.28,13.28,0,0,0-6.56-7.92L138.13,55.1l-2-1L116.28,43.69l-1.42,2.71-2-1,1.41-2.71ZM218.93,58.07l1.81.54-3.35,11.23-11.92-3.55.7-2.35-1.43-.42-.7,2.35-2.33-.7-.64,2.14L216.75,72l-.58,2,2.14.64.58-2,12.24,3.64-.58,2,2.85.85,1.88-6.33-2.85-.85-.66,2.23-12.24-3.64,3.34-11.24,2,.59.84-2.85-5.9-1.76Zm51.93,18.14,2.85.85.73-2.46,2.76.82.85-2.86-5.61-1.66Zm.9,7.39-4.41,14.82,13.12,3.9,7.09-23.82-2.05-.61.85-2.85,5.52,1.64L291,79.53l-2-.6-7.09,23.82,12.43,3.7.8-2.69,1.4.42-.8,2.69.74.21,2.2.66-.64,2.14L263.86,99.71l5.05-17ZM171.46,69.87,170.83,72,203,81.58l.64-2.14-27.87-8.29.58-2-2.13-.64-.59,2ZM193,50.34l1.8.53-3.34,11.24-2.69-.8-.64,2.14,6.45,1.92.64-2.14-2.34-.7,3.35-11.23,1.45.43.84-2.85-4.67-1.4Zm-51.1-26.5-7,13.35,2.46,1.28-1,2-6.07-3.17,1-2,2.29,1.2,7-13.34-1.47-.77,1.38-2.64,4.42,2.31-1.38,2.64Zm12.28,6.42-7,13.34L150,45.05l-1,2-5.16-2.69-1.4-.74,1-2,2.46,1.29,7-13.34-1.63-.86,1.37-2.63,4.92,2.56-1.38,2.64Zm15.5,25.36,7.72,2.3,3.35-11.23-2.93-.87.85-2.86,6.86,2-.84,2.85-1.81-.54-3.34,11.24,2.69.8-.64,2.14-2.69-.8-.58,2L176.13,62l.58-2L169,57.76ZM121,29.91l7-13.34-1.47-.77,1.38-2.63,4.91,2.56-1.38,2.64-1.46-.77-7,13.35,2.29,1.19m63.49,29.17,2.69.8M111.59,27.54l-6.4-3.34,1-2L109,23.67,110.92,20l1.32.69-1.91,3.65,2.29,1.2Zm-19.82.83,4.59-8.79-4.59,8.79,2.79,1.46-1,2-2.79-1.46-12,22.92,2,1.07L79.43,57l-4.68-2.45L103.11.25l4.59,2.4-1.37,2.64-2-1-7,13.35,2.78,1.45-1,2-2.79-1.46M121,29.91l-2.29-1.19-1,2,2.3,1.2-.72,1.37,2,1,.71-1.38,2.3,1.2,1-2M99.57,35l6.4,3.35,1-2L100.6,33Zm-.66,32.19,1.38-2.64,2,1.07,7.4-14.17,2,1-7.4,14.17,1.94,1-1.38,2.64Zm61.76,52.33-.87-2.85-1.85.56-7.89-26,2.74-.84-.65-2.13-6.91,2.1.65,2.13,2.74-.83,7.9,26-1.86.56.87,2.85Zm-2-33.21L168,83.45l15.94,4.74-.64,2.14-2.65-.79,1.9,6.24-1.42.44L178.9,89,166,92.94l6.07,20,2.28-.7.86,2.85L169,117l-.86-2.84,1.85-.57-7.89-26-2.75.83ZM87.13,61l1.37-2.64,4.09,2.13-1.37,2.64Zm28.26-46.33L117.3,11l1.47.77,1.38-2.64L115.4,6.67,114,9.31l2,1L114.08,14Zm54.37,20.39-4.6-2.4-1.38,2.64,2,1-7,13.34L156,48.21l-1,2,2.78,1.45-1.05,2,2,1,3.79,1.13.63-2.14-3.37-1,5.53-10.59,4.2,1.25.85-2.85-2.92-.87,2.38-4.56-2.38,4.56M206.69,57l.7-2.35-1.45-.43.85-2.85,4.67,1.39-.84,2.85-1.81-.53-.7,2.35Zm30.54,9.22-2.85-.85.73-2.46-2-.59.85-2.85,4.81,1.43Zm-54.16,36.54L185,109l-2.29.7.87,2.85,4.48-1.37-.87-2.84-.77.23-1.9-6.24ZM77.48,226.27v6.93h-3v-2.48H45v-7.37h2.23v5.14H74.51v-2.22Zm-3,39.76h3v-7.61h-3Zm0-16.29v-5H47.23V267H45V242.5H74.51V240h3v9.72ZM57.46,278.67v-1.48H47.23v-3.41H45v8h2.23v-3.1Zm20-4h-3v2.48H64.28v1.48H74.51v2.48h3Zm-30.25,32H74.51v-2h3v6.2h-3v-2H47.23v3.28H45v-8.86h2.23Zm0,12.33H45v41.72h2.23v-36.2H74.51v3.87h3v-8.83h-3v2.73H47.23Zm0-30.43v3.1H57.46v1.48H47.23v3.35H45v-7.93Zm17.05,3.1v1.48H74.51V296h3v-6.2h-3v1.86Zm-34,11.65h3v7.56h-3v-2.11H14.38v-3H30.25v-2.48Zm0-6.82V294H14.38v-3H30.25v-1.24h3v6.69Zm100-212,2.85-.86-.76-2.5-2.85.86Zm-3.66-12h0l-11,3.44-3-1.58,1.38-2.64,1.94,1,12.64-4L133,60.11l2,1-3,5.74a13.4,13.4,0,0,0-1.5,5.71l-3.53,1.07-.38-1.25m-93.33,84.9H31v-4.13H19.22v15.08H31v-4.13h2.24V233.2H31V202.64H19.22V242.5H31V240h2.24v9.72h-3v-4.27h-14V99.59H134.82l-1-3.43L133.13,94l-.38-1.25,2.84-.87.38,1.25,2.75-.83.65,2.13-2.75.84,7.89,26,1.86-.57.86,2.85L146,124l-9.11,30H113.19v-3h21.45l7.89-26-.86-2.85-5.95-19.57H19.22V151h87.15v3H77.48v2.82h-3v-3.57H47.23v4.13H45v-4.13H33.23ZM31,169.75H19.22v30.66H31Zm46.49,27.58h-3v3.45H64.28v1.49H74.51v2.21h3ZM47.23,164.14H45v9h2.23v-3.39H57.46v-1.48H47.23Zm0,38.5v-.37H57.46v-1.49H47.23V196.4H45v20.13h2.23Zm-14,72.07h-3v6.44h3Zm-3-8.68h3v-7.61h-3Zm17-80.46H74.51v3.08h3v-7.77h-3v2.46H47.23V180H45v9.63h2.23Zm27.28,32h3v-4.43h-3ZM64.28,168.27v1.48H74.51v2.46h3v-6.77h-3v2.83Z"/><path id="hatch" class="cls-2" d="M136.62,95.3l2.75-.84-.65-2.13-2.75.83-.38-1.25-2.84.87.38,1.25.65,2.13,1,3.43H16.24V245.47h14v4.27h3V240H31v2.48H19.22V202.64H31V233.2h2.24V164.14H31v4.13H19.22V153.19H31v4.13h2.24v-4.13H45v4.13h2.23v-4.13H74.51v3.57h3v-2.82h28.89v-3H19.22V102.57h116.5l5.95,19.57.86,2.85-7.89,26H113.19v3h23.66L146,124l1.27-.39-.86-2.85-1.86.57-7.89-26M31,169.75v30.66H19.22V169.75H31m26.47-1.48H47.23v-4.13H45v9h2.23v-3.39H57.46v-1.48m20-2.83h-3v2.83H64.28v1.48H74.51v2.46h3v-6.77m0,15.44h-3v2.46H47.23V180H45v9.63h2.23v-4H74.51v3.08h3v-7.77m0,16.45h-3v3.45H64.28v1.49H74.51v2.21h3v-7.15m0,15.83h-3v4.43h3v-4.43M47.23,202.64v-.37H57.46v-1.49H47.23V196.4H45v20.13h2.23V202.64m30.25,23.63h-3v2.22H47.23v-5.14H45v7.37H74.51v2.48h3v-6.93m0,13.75h-3v2.48H45V267h2.23V244.73H74.51v5h3V240m83.19-120.54-.87-2.85-1.85.56-7.89-26,2.74-.84-.65-2.13-6.91,2.1.65,2.13,2.74-.83,7.9,26-1.86.56.87,2.85,5.13-1.56M132,66.89l3-5.74-2-1-4.47,8.58-12.64,4-1.94-1-1.38,2.64,3,1.58,11-3.44h0l.38,1.24,3.53-1.07,1.5-5.71m.34,14.22-2.85.86.76,2.5,2.85-.86-.76-2.5m97.93,8.59,1.21-4.1-2.85-.85-.58,2-12.24-3.64.59-2-2.14-.64-.59,2-3.49-1-.64,2.14,17.87,5.32L224,100.14l-17.87-5.33L205.51,97l3.5,1,1,3.38-1.68.51.86,2.85,9.8-3,7,2.09.85-2.85,3.36-11.29M111.71,52.44l-2-1-7.4,14.17-2-1.07-1.38,2.64,6,3.11,1.38-2.64-1.94-1,7.4-14.17M92.59,60.49,88.5,58.36,87.13,61l4.09,2.13,1.37-2.64M90.74,30.35l2.79,1.46,1-2-2.79-1.46,4.59-8.79L99.15,21l1-2L97.4,17.61l7-13.35,2,1,1.37-2.64L103.11.25,74.75,54.53,79.43,57l1.38-2.64-2-1.07,12-22.92m65.74,38.83,1.52,5,2.13-.65,3.45-1,1.35-4.54-7.14-2.13-1.07-3.5-17.56-9.17-2-1L117.31,41.71l.72-1.37-2-1-.72,1.37L113,39.48l-1,2,2.29,1.2-1.41,2.71,2,1,1.42-2.71,19.87,10.38,2,1,11.79,6.16m-49-56.77L104.44,1M98.61,8.86l7.2-7.2M96.32,13.23l7-7M105,4.58l2.21-2.2M94,17.6l7-7M91.76,22l7-7m-9.31,11.4,8.45-8.45M16.24,101.66l2.07-2.07M97.65,20.26,99.3,18.6M87.19,30.71l7-7m-78,80.07,4.16-4.16M99,21l.34-.34M84.91,35.08l7-7m-75.7,77.79,3-3M91.39,30.69,93,29M19.51,102.57l3-3M82.63,39.45l7-7M16.24,107.93l3-3M92.76,31.41l1.65-1.66M21.6,102.57l3-3M80.35,43.82l7-7M16.24,110l3-3M78.07,48.19l7-7m-61.4,61.41,3-3M16.24,112.1l3-3M75.78,52.56l7-7m-57,57,3-3m-12.51,14.6,3-3M75.51,54.93l5-5M27.86,102.57l3-3m-14.6,16.69,3-3M76.88,55.64l2.2-2.2M30,102.57l3-3M16.24,118.36l3-3m59-59,2.2-2.21M32,102.57l3-3M16.24,120.45l3-3m14.9-14.91,3-3m-20.86,23,3-3m17-17,3-3m-22.95,25,3-3M38.3,102.57l3-3m-25,27.12,3-3m21.17-21.17,3-3M16.24,128.8l3-3m23.25-23.26,3-3m-29.21,31.3,3-3m69-69,.47-.47M44.56,102.57l3-3M16.24,133l3-3M87.85,61.37l2.2-2.2m-43.4,43.4,3-3M16.24,135.06l3-3m70-70,2.2-2.21M48.74,102.57l3-3M16.24,137.15l3-3M112.1,41.3l1.51-1.52M50.82,102.57l3-3M90.59,62.8l1.67-1.67m-76,78.11,3-3m96.7-96.7.21-.21M52.91,102.57l3-3m57.44-57.44L115,40.5M16.24,141.32l3-3m94.42-94.42,3.86-3.87M55,102.57l3-3M16.24,143.41l3-3m94.59-94.59,3.91-3.92M57.09,102.57l3-3M16.24,145.5l3-3M117.44,44.3l1.66-1.65M59.17,102.57l3-3m46.92-46.92,1.05-1.05m-93.88,96,3-3M118.81,45l1.66-1.66M61.26,102.57l3-3M106.79,57l4.71-4.71M16.24,149.67l3-3m101-101,1.66-1.65M63.35,102.57l3-3m38.19-38.18,5.27-5.27M99.06,66.86l2-2M16.24,151.76l3-3M121.56,46.45l1.65-1.66M65.44,102.57l3-3m31.78-31.77,7.31-7.31M16.24,153.85l3-3M122.93,47.16l1.65-1.65M67.52,102.57l3-3m31.06-31.06,3.65-3.65m-89,91.06,5-5M124.3,47.88,126,46.23M69.61,102.57l3-3m30.34-30.34,2.2-2.21M16.24,158l3-3M125.67,48.6l1.65-1.66M21.07,153.19,23.3,151m81-81,1.51-1.52M71.7,102.57l3-3M16.24,160.11l3-3M127,49.31l1.65-1.65M23.16,153.19,25.39,151m48.39-48.39,3-3M16.24,162.2l3-3M128.41,50l1.66-1.65M25.25,153.19,27.48,151m48.39-48.39,3-3m-62.61,64.7,3-3M129.78,50.75l1.66-1.66M27.33,153.19,29.56,151M78,102.57l3-3M16.24,166.37l3-3M131.15,51.46l1.66-1.65M29.42,153.19,31.65,151m48.4-48.39,3-3M16.24,168.46l3-3M132.53,52.18l1.65-1.66M31,153.71,33.74,151m48.39-48.39,3-3m-68.87,71,3-3M133.9,52.89l1.65-1.65M31,155.8l2.24-2.24m79.39-79.38,2.11-2.12M33.6,153.19,35.83,151m48.39-48.39,3-3m-71,73,4.37-4.37M135.27,53.61,136.92,52M31.56,157.32l1.67-1.67M113.9,75l2.48-2.48m-80.7,80.69L37.91,151m48.4-48.39,3-3m-73,75.13,3-3M136.64,54.33l1.65-1.66M21.21,169.75l1.49-1.48m92.57-92.58,4.15-4.15M37.77,153.19,40,151m48.4-48.39,3-3M16.24,176.81l3-3M138,55l1.65-1.65M23.3,169.75l1.49-1.48m93.13-93.14,4.54-4.54m-82.6,82.6L42.09,151m48.39-48.39,3-3M16.24,178.9l3-3M139.38,55.76,141,54.1M25.39,169.75l1.48-1.48m103.9-103.9,3.56-3.56M31,164.15h0m90-90,4.55-4.55M41.94,153.19,44.18,151m48.39-48.39,3-3M16.24,181l3-3M140.75,56.47l1.66-1.65M27.47,169.75,29,168.27m95-95.05,9.76-9.75M31,166.23l2.1-2.09m61.57-61.57,3-3M44,153.19,46.26,151m-30,32.11,3-3M142.12,57.19l1.66-1.65M29.56,169.75l3.67-3.66m93.41-93.41,4.92-4.93M45,154.31,48.35,151m48.4-48.39,3-3M16.24,185.16l3-3M143.49,57.91l1.66-1.66M31,170.41l2.24-2.23m94.85-94.85,2.58-2.59M45,156.4l2.23-2.23m51.6-51.6,3-3m-53.6,53.6L50.44,151m-34.2,36.29,3-3M144.87,58.62,146.52,57M31,172.5l2.24-2.24m67.69-67.69,3-3M46.17,157.32l1.06-1.06m3.06-3.07L52.53,151M16.24,189.33l3-3m127-127,1.65-1.65M31,174.58l2.24-2.23M103,102.57l3-3m-53.6,53.6L54.61,151M16.24,191.42l3-3M147.61,60.06l1.65-1.66M31,176.67l2.24-2.23m71.87-71.87,3-3m-53.6,53.6L56.7,151M16.24,193.51l3-3M149,60.77l1.65-1.65M31,178.76l2.24-2.23m74-74,3-3M45,164.75l.61-.61m11-10.95L58.79,151M16.24,195.6l3-3M150.34,61.49,152,59.83m-121,121,2.24-2.23m96.33-96.33.48-.48m-85,85,2.23-2.24m62-62,3-3m-53.61,53.6L60.88,151M16.24,197.68l3-3M151.61,62.32l1.77-1.77M31,182.93l2.24-2.23M130,83.88l2.39-2.38M45,168.92l2.23-2.23m64.13-64.12,3-3m-53.6,53.6L63,151M16.24,199.77l3-3M152.76,63.26l2-2M31,185l2.24-2.23M132.11,83.9l.81-.8M45,171l2.75-2.74m65.69-65.7,3-3m-53.6,53.6L65.05,151m-48.81,50.9,3-3M153.79,64.31,156.12,62M31,187.11l2.24-2.23m82.3-82.31,3-3M45,173.1l2.23-2.23m17.68-17.68L67.14,151M48.35,169.75l1.48-1.48M16.24,204l3.54-3.54M154.7,65.49l2.3-2.3m-126,126L33.23,187m84.39-84.39,3-3M47.05,173.14l.18-.19M67,153.19,69.22,151M50.43,169.75l1.49-1.48M16.24,206l3-3M155.49,66.79l2-2M19.64,202.64l2.23-2.23m97.84-97.84,3-3M31,191.28l2.24-2.23m35.85-35.86L71.31,151M52.52,169.75,54,168.27M16.24,208.12l3-3M156.15,68.22,158.38,66M21.72,202.64,24,200.41m97.83-97.84,3-3M31,193.37l2.24-2.23m37.94-37.95L73.4,151M54.61,169.75l1.49-1.48M16.24,210.21l3-3M156.67,69.78,160,66.46M23.81,202.64,26,200.41M133,93.49l1.12-1.12M31,195.46l2.24-2.24m90.65-90.65,3-3M45,181.45l1.5-1.5m26.76-26.76L75.49,151M56.7,169.75l.76-.76M16.24,212.3l3-3M157.15,71.39l4.45-4.45M25.9,202.64l2.23-2.23M133.45,95.09l2.38-2.39M31,197.54l2.24-2.23M126,102.57l3-3M45,183.54l2.23-2.24M74.51,154,77.57,151M16.24,214.38l3-3M157.64,73l5.57-5.57M28,202.64l2.23-2.23M133.94,96.69l4.17-4.18M31,199.63l2.24-2.23m94.83-94.83,3-3m-86,86,2.29-2.28m27.22-27.22L79.66,151M16.24,216.47l3-3M158.79,73.92l6-6M30.07,202.64l3.16-3.15M137.76,95l1.35-1.34M45,187.71l4.38-4.37m85-85,2.39-2.38M64.28,168.43l.17-.16m65.69-65.7,3-3M76,156.76l1.53-1.53m1.29-1.29,3-3m-65.51,67.6,3-3M161.79,73l2.32-2.32M31,203.81l2.24-2.24m99-99,5.06-5.06M45.22,189.58l2-2m33.63-33.63,3-3M49.23,185.57l2.23-2.23m13.59-13.59,1.48-1.48M16.24,220.65l3-3M145.54,91.34l1.57-1.56M31,205.89l2.24-2.23M134.32,102.57l3.46-3.46M51.32,185.57l2.23-2.23M83,153.94l3-3M67.13,169.75l1.49-1.48M16.24,222.73l3-3M146.76,92.22l3.35-3.35M31,208l2.24-2.23M135.88,103.09l2.39-2.38M53.41,185.57l2.23-2.23M85,153.94l3-3M69.22,169.75l1.49-1.48M16.24,224.82l3-3m129.6-129.6,3.49-3.49M31,210.07l2.24-2.23M136.37,104.7l2.38-2.39M55.49,185.57l2.23-2.23m29.4-29.4,3-3M71.31,169.75l1.49-1.48m1.71-1.72,1.11-1.11M16.24,226.91l3-3M152.75,90.4l0,0M31,212.16l2.24-2.24M149.3,93.85l1.19-1.19M45,198.15l1.75-1.75m90.1-90.1,2.39-2.39M57.58,185.57l2.23-2.23m29.4-29.4,3-3M73.4,169.75l4.08-4.08M16.24,229l3-3M149.79,95.45,151,94.26m-120,120L33.23,212M137.34,107.9l2.38-2.39M45,200.23,47.23,198M91.3,153.94l3-3m-34.6,34.61,2.23-2.23m12.61-12.61,3-3M16.24,231.08l3-3M150.27,97.05l1.2-1.19M31,216.33l2.24-2.23m104.6-104.6,2.38-2.39M45,202.32l2.23-2.23m46.16-46.15,3-3m-34.6,34.61L64,183.34m11.13-11.13,2.36-2.37M16.24,233.17l3-3M150.76,98.65,152,97.46m-121,121,2.24-2.23M138.31,111.1l2.39-2.39M45,204.41l3.63-3.63m46.84-46.84,3-3M63.84,185.57l2.23-2.23m11.14-11.13.27-.28M16.24,235.26l3-3m132-132,1.19-1.19M31,220.5l2.24-2.23M138.8,112.7l2.38-2.38M45,206.5l2.23-2.23m50.33-50.33,3-3M49.23,202.27l1.49-1.49m15.21-15.21,2.23-2.23m-51.92,54,3-3M151.73,101.85l1.2-1.19M31,222.59l2.24-2.23M139.29,114.3l2.38-2.38M45,208.58l2.23-2.23m52.42-52.41,3-3m-51.3,51.31,1.49-1.49M68,185.57l2.23-2.23m-54,56.09,3-3m133-133,1.19-1.19M31,224.68l2.24-2.23M139.77,115.9l2.39-2.38M45,210.67l2.23-2.23m54.51-54.5,3-3m-51.3,51.31,1.48-1.49m19.62-19.61.28-.29m-4.68,4.69,2.23-2.23m-56.1,58.18,3-3M152.71,105.05l1.19-1.19M31,226.77l2.24-2.23m107-107,2.38-2.38M45,212.76l2.23-2.23m56.59-56.59,2.55-2.55M55.49,202.27,57,200.78m17.53-17.53,2.37-2.37m-4.69,4.69,2.23-2.23M16.24,243.61l3-3m134-134,1.2-1.2M31,228.85l2.24-2.23M140.74,119.1l2.39-2.38M45,214.85l2.23-2.24m58.68-58.67.46-.46M74.28,185.57l3.2-3.2m-61,63.1,3-3M153.68,108.26l1.19-1.2M31,230.94l2.24-2.23m108-108,2.39-2.38M45.41,216.53l1.82-1.83m27.28-27.27,3-3m-58.93,61,3-3M154.17,109.86l1.19-1.19M31,233l2.24-2.23M141.72,122.31l2.38-2.39M75.37,188.65l2.11-2.11M20.64,245.47l3-3m131-131,1.19-1.19M32.91,233.2l.32-.31m109-109,2.78-2.78m-80.7,80.7,1-1.05m47.86-47.85,2-2M77.46,188.65l0,0M22.73,245.47l3-3M155.14,113.06l1.19-1.19m-90.4,90.4,1.49-1.49M142.24,126l4.39-4.39m-32.37,32.37,3-3M24.82,245.47l3-3M155.63,114.66l1.19-1.19M45,225.28l1.94-1.93m99.57-99.57.61-.61M68,202.27l1.49-1.49M141.32,129l4.47-4.47m-29.44,29.45,3-3M26.9,245.47l3-3M156.11,116.26l1.19-1.19M31,241.38,32.36,240M140.41,132l4.47-4.47M45,227.37l2.23-2.23m71.2-71.2,3-3m-51.3,51.31,1.48-1.49m2.92-2.91.54-.54M29,245.47l4.24-4.24M155,119.42l2.75-2.75M45,229.46l2.23-2.23M139.5,135l4.47-4.47M72.19,202.27l1.49-1.49m46.84-46.84,3-3m-49,49,2.62-2.62m-46.88,49,3-3M155.53,121l4.3-4.3m-114,114,2.23-2.23M138.59,138l4.47-4.47M74.28,202.27l3.2-3.2m45.13-45.13,3-3M30.25,248.38l3-3M158.5,120.14l1.82-1.82M47.92,230.72l2.23-2.23M137.68,141l4.47-4.46M74.51,204.13l3-3m47.22-47.21,3-3M31,249.74l2.25-2.24M136.77,144l4.47-4.46M50,230.72l2.24-2.23m74.54-74.55,3-3M76.24,204.48l1.24-1.24m-44.41,46.5.16-.16M135.86,147l4.47-4.47M52.09,230.72l2.23-2.23m74.55-74.55,3-3M54.18,230.72l2.23-2.23M135,150l4.46-4.47M131,153.94l3-3M56.27,230.72l2.23-2.23m74.55-74.55,5.45-5.46M45,244.07l1.58-1.57m88.55-88.56,2.46-2.46M58.35,230.72l2.24-2.23m13.92-13.93,1.4-1.4M45,246.16l3.66-3.66m25.85-25.85,3-3m-17,17,2.23-2.23M45,248.24,47.23,246M209.67,83.58l1.8-1.8m-162.95,163,2.23-2.23m24.9-24.91,1.83-1.83m-15,15,2.23-2.23M45,250.33l2.23-2.23M214,81.38l.76-.76M50.61,244.73l2.23-2.23M211.28,84.05l1.79-1.79M64.62,230.72l2.23-2.23M45,252.42l2.23-2.23M212.89,84.53l3.43-3.43M52.7,244.73l2.23-2.23M66.7,230.72l2.24-2.23M45,254.51l2.23-2.23M214.5,85l1.79-1.79M54.78,244.73,57,242.5m11.78-11.78L71,228.49m-26,28.1,2.23-2.23M216.11,85.49l1.79-1.79m-161,161,2.23-2.23M205.88,95.72l.76-.76M70.88,230.72l2.23-2.23m1.4-1.4.82-.82M45,258.68l2.23-2.23M217.71,86l1.8-1.79M59,244.73l2.23-2.23M206.45,97.23l1.8-1.79M73,230.72l4.44-4.45M45,260.77l2.23-2.23M219.32,86.45l1.8-1.8M61,244.73l2.24-2.23M208.06,97.71l1.79-1.79M74.51,231.26l3-3M45,262.86l2.23-2.24M220.93,86.93l1.8-1.8M63.13,244.73l2.23-2.23M209.21,98.65l2.25-2.25M74.66,233.2l2.82-2.82M45,264.94l2.23-2.23M222.54,87.41l1.79-1.8M65.22,244.73l2.23-2.23M209.7,100.25l3.37-3.37M76.75,233.2l.73-.74M45.07,267l2.16-2.16M224.15,87.89l1.79-1.8M67.31,244.73l2.23-2.23M208.78,103.26l5.9-5.91M47.16,267l.07-.07m181.05-181,.91-.91M69.39,244.73l2.24-2.23M225.76,88.36l1.79-1.79m-18.08,18.08,6.82-6.82M71.48,244.73l2.23-2.23M227.37,88.84l3.43-3.43M74.51,241.7,76.19,240M212.47,103.74l5.43-5.43M73.57,244.73l3.91-3.92m149-149,4.42-4.42m-15.46,15.46,4-4m-145,147.09,3-3M225.62,94.76,230,90.34m-11.57,11.58,2.64-2.65M74.51,248l3-3M224.74,97.73l4.42-4.42m-8.83,8.83,2.39-2.39m-147.91,150,2.67-2.66M221.94,102.62l6.34-6.34M76.9,249.74l.58-.58M223.55,103.1l3.84-3.84m-2.23,4.32,1.35-1.35M120.15,9.15,115.4,6.67,114,9.31l2,1L114.08,14l1.31.69L117.3,11l1.47.77,1.38-2.64m-9.82,15.21,1.91-3.65L110.92,20,109,23.67l-2.78-1.45-1,2,6.4,3.34,1-2-2.29-1.2M100.6,33l-1,2,6.4,3.35,1-2L100.6,33m22.34-2,7-13.35,1.46.77,1.38-2.64-4.91-2.56-1.38,2.63,1.47.77-7,13.34-2.29-1.19-1,2,2.3,1.2-.72,1.37,2,1,.71-1.38,2.3,1.2,1-2L122.94,31m11.94,6.24,7-13.35,1.63.86,1.38-2.64-4.42-2.31-1.38,2.64,1.47.77-7,13.34-2.29-1.2-1,2,6.07,3.17,1-2-2.46-1.28m12.28,6.41,7-13.34,2,1,1.38-2.64-4.92-2.56-1.37,2.63,1.63.86-7,13.34-2.46-1.29-1,2,1.4.74L148.91,47l1-2-2.79-1.45m18.09-1.51,4.2,1.25.85-2.85-2.92-.87,2.38-4.56-4.6-2.4-1.38,2.64,2,1-7,13.34L156,48.21l-1,2,2.78,1.45-1.05,2,2,1,3.79,1.13.63-2.14-3.37-1,5.53-10.59m17.58,5.23,1.81.54.84-2.85-6.86-2-.85,2.86,2.93.87-3.35,11.23-7.72-2.3L169,57.76l7.72,2.3-.58,2,2.14.64.58-2,2.69.8.64-2.14-2.69-.8,3.34-11.24m13.35,4,1.45.43.84-2.85-4.67-1.4L193,50.34l1.8.53-3.34,11.24-2.69-.8-.64,2.14,6.45,1.92.64-2.14-2.34-.7,3.35-11.23m15.28,1.44-4.67-1.39-.85,2.85,1.45.43-.7,2.35,1.42.43.7-2.35,1.81.53.84-2.85m-6,13.55.7-2.35-1.43-.42-.7,2.35-2.33-.7-.64,2.14L216.75,72l-.58,2,2.14.64.58-2,12.24,3.64-.58,2,2.85.85,1.88-6.33-2.85-.85-.66,2.23-12.24-3.64,3.34-11.24,2,.59.84-2.85-5.9-1.76-.85,2.85,1.81.54-3.35,11.23-11.92-3.55m33.34-5.41L234,59.45l-.85,2.85,2,.59-.73,2.46,2.85.85,1.58-5.32M175.74,71.15l.58-2-2.13-.64-.59,2-2.14-.64L170.83,72,203,81.58l.64-2.14-27.87-8.29M249.15,64l-2.85-.85L245,67.39l2.85.85L249.15,64m-3.84,12.89L242.46,76l-1.27,4.28,2.85.85,1.27-4.28m-3.84,12.9-2.85-.85-1.27,4.27,2.85.85,1.27-4.27m-3.83,12.89-2.85-.85-1.28,4.28,2.85.84,1.28-4.27m19.64-8.19-2.85-.85-1.28,4.28,2.85.85,1.28-4.28m3.83-12.89-2.85-.85L257,85l2.85.85,1.27-4.28M265,68.67l-2.85-.85-1.27,4.28,2.85.84L265,68.67m-11.51,38.67-2.85-.85-1.28,4.28,2.86.85,1.27-4.28M271.76,83.6l-2.85-.85-5.05,17L298,109.88l.64-2.14-2.2-.66-.74-.21.8-2.69-1.4-.42-.8,2.69-12.43-3.7L289,78.93l2,.6.85-2.85L286.36,75l-.85,2.85,2.05.61-7.09,23.82-13.12-3.9,4.41-14.82m2.68-9,2.76.82.85-2.86-5.61-1.66-1.58,5.31,2.85.85.73-2.46m31.27,6.2-5.52-1.64L299.34,82l2.07.62-4.34,14.59,1.4.42L302.81,83l.74.22,1.31.39.85-2.85m10.93,6.36,2.05.61.85-2.85L314,83.28l-.85,2.85,2.05.61-7.09,23.82-2.94-.88-.64,2.14,7.3,2.17.64-2.13-2.94-.88,7.09-23.82m13.83,4.12,2,.61.85-2.86-5.52-1.64L327,90.24l2.05.61L322,114.68,319,113.8l-.64,2.14,7.3,2.17.64-2.14-2.94-.87,7.09-23.82m-50.54,25.5-8.32-2.48L260.5,111l-.85,2.85,11.11,3.3,8.32,2.48,2.73.81.85-2.85-2.73-.81m16,4.77-5-1.48-.85,2.85,5,1.48.85-2.85m8.32,2.47-.85,2.86,15.73,4.68.85-2.85L304.27,124m29,8.64-5-1.48-.84,2.86,5,1.48.85-2.86m14-42.13,3.25.32.29-3-4.93-.48-1.47,4.92-2.76-.82-.84,2.85,2.75.82L336.5,119l-3.65-1.08-.63,2.14,15.29,4.55.63-2.14-9.5-2.83,8.66-29.11m15.43-1.48-3.25-.32-.29,3,3.25.32.29-3m13.86,4.34,1.4.14.29-3-6.91-.68-.29,3,3.25.32-10.15,34.08-9.5-2.83-.64,2.14,19.19,5.71.64-2.14-7.55-2.25,10.27-34.49m25.14,2.46,4.76.46.29-3-8.43-.82-.28,3,1.4.14L388,134.32l-7.55-2.25-.63,2.14,23.5,7v4.13h3V120.88l3.42.33.22-2.21-14.63-1.42.43-1.45.43-1.46.74-2.48,4.87-16.34M404,120.66v18.45L390.09,135l4.53-15.22,9.4.92m-14.3-29-2.8-.27-.29,3,2.8.28.29-3m33.14,3.24-7.45-.73-.28,3,4.76.46V120l-3.21-.31-.22,2.2,3.43.34v34.45h-2.48v3h5.45V94.92m-76.28,41.7-5-1.48-.85,2.85,5,1.48.85-2.85m8.31,2.48L354,142l5,1.48v7.08h3v-6.2l27.28,8.12v52.5h-6.82v1.49h6.82v19.46h-6.82v2.23h6.82v2.48h2.23v-2.48h11.77v2.48h3v-8.83h-3v4.12H391.5V150L354.89,139.1m7.1,20.09h-3v6.2h3v-6.2m46.74-2.53h-2.48V154h-3v8.25h3v-2.64h2.48v-3M362,174.06h-3v6.2h3v-6.2M406.25,171h-3v8.26h3V171m0,16.94h-3v8.25h3v-8.25M362,188.94h-3v6.2h-6.14v3H362v-9.17m13.64,16H359.76v25.66H362v-2.48h13.64v-2.23H362V206.42h13.64v-1.49m30.62-.11h-3v8.26h3v-8.26m-68.18-6.71h6.13v-3h-9.11V242.5h9.11v-3h-6.13V198.11m-32.55-3h-6.13V182.59h-12v3h9.05v16h2.21l0-3.41h6.88v-3m17.79,0H314.2v3h6.14v13.64H298.55l0-3.4h-2.16v7.43h2.11v-2.53h21.81v26.28H314.2v3h9.11V195.14M200.32,168h1.14v-3H197.7v3h1.14v47h1.48V168m13.59-3h-3.77v3h1.14v3.62h1.49V168h1.14v-3m12.45,0h-3.77v3h1.14v3.62h1.49V168h1.14v-3m12.44,0H235v3h1.14v3.62h1.48V168h1.14v-3m30.83,0H247.48v3h1.89v17.6h1.48v26h1.49v-26h14.75V215h2.24V185.57h9.35v-3h-9.05V165m-6.45,16.12h-9.4v-9.52l9.4,9.52m-80.51-9.52v9.52h-9.39l9.39-9.52m-42.58,14h9v-3h-12v12.55h-8.75v3h9.5v16.65h-6v10.36h-4.44v2.23h9.68V230h3v-2.67h15.66v-2.23H140.09V185.57m-23.93,12.54h3.52v-3h-6.49V242.5h6.49v-3h-3.52V227.35h4.45v-2.23h-4.45v-27ZM115.38,6.7l0,0m-.84,2.93,2.21-2.21m-.84,2.92,2.21-2.2m-3.89,6,3-3m0,0,2.21-2.21M105.88,24.55l1.65-1.65m11.16-11.16.21-.21M107.25,25.27l1.65-1.65m.3-.3L112,20.56M99.62,35l1.65-1.65M108.62,26l1.81-1.81M101,35.7l1.65-1.65M110,26.7l1.66-1.65m-9.29,11.37L104,34.77m7.35-7.35.61-.61m-8.24,10.33,1.65-1.66m-.28,2.37,1.66-1.65M126.91,16l2.21-2.2m-1.79,3.87,3.16-3.16m-5.44,7.53,6.81-6.81M118.22,31l1.65-1.66M131,18.19l.92-.92m-9.18,9.18L128,21.18m-8.45,10.53,6.17-6.16m-6,8,3.66-3.66m-2.29,4.38h0m1.14-1.14L124,31.49m-.29,2.37L125,32.55m14.23-10.06,2.21-2.21m-1.08,3.17L142.83,21m-4.73,6.82,3.51-3.51m.39-.39,2.2-2.2M130.56,37.44l1.65-1.65m11.16-11.15.31-.31m-7.87,7.86,3.52-3.51m-7.4,9.48L137,33.05m-3.74,5.83L135,37.22m-.29,2.37,1.66-1.65M136,40.31l.7-.7m14.85-10.68,2.21-2.2m-1.25,3.34,2.62-2.63m-4.91,7,3.52-3.51m.56-.56,2.2-2.21M142.9,43.89l1.65-1.65m11.16-11.16,1-1M148,38.81l3.51-3.51m-7.22,9.31,4.94-4.94m-3.57,5.65,1.66-1.65M147,46l1.66-1.66m-.28,2.37,1.4-1.4m14.15-10,2.2-2.21m-.83,2.93,2.2-2.21m-3.32,5.41,4.69-4.69M155.24,50.34l1.65-1.66m5-5,7-7m-12.32,14.4,1.66-1.65m7.23-7.24,2.39-2.39M159.62,48l5.27-5.27m-7.55,9.64,5.27-5.27m4.5-4.5,2.39-2.39M157.67,54.17l2.66-2.66m8.39-8.39L169.86,42M159.11,54.82,160.9,53m-.19,2.27,1.8-1.79m-.19,2.27.21-.21M178.33,44l.82-.83M178.37,46l2.39-2.39M169.12,57.33l1.43-1.43M180,46.47l2.39-2.39m-12,14.09,1.79-1.79m8.05-8.05L184,44.56M172,58.65l1.8-1.79m9.42-9.43,2.24-2.23m-6.11,6.1L182.64,48m-9.06,11.14,1.8-1.79m3.06-3.06L181.75,51m-6.56,8.65,1.8-1.79m.56-.57,3.32-3.32m-4.2,6.29L180,56.91m-3.21,5.3,3.43-3.44M180,61.05l1.79-1.8M171.07,72.08l1.79-1.79M193,50.14l2.23-2.23M174,69.14l.49-.49m-1.82,3.91,3.43-3.43m18.34-18.35,2.4-2.39M174.28,73l1.8-1.79m17.95-18,4.42-4.42M175.89,73.52l1.8-1.79m15.46-15.47,2.21-2.21M177.5,74l1.8-1.8m13-13L194.47,57m-6.38,6.39,1.76-1.76M179.11,74.48l1.79-1.8m8.77-8.76L193.59,60M180.72,75l1.79-1.8m8.77-8.76,1.79-1.8M182.33,75.43l1.79-1.79m8.76-8.76,1.8-1.8M183.94,75.91l1.79-1.79m20.34-20.34,2-2M194.49,65.36l.07-.07m-9,11.1,1.8-1.79m20-20,2.39-2.39M187.15,76.87l1.8-1.79m20-20,2.39-2.39M207,57.07l1.79-1.79m-20,22.07,1.8-1.79m20-20,.12-.12M190.37,77.83l1.79-1.8m9-9,1.57-1.57M192,78.31l1.79-1.8m8.77-8.76,3.55-3.56m-12.5,14.6,1.79-1.8m8.76-8.76,1.8-1.8M195.19,79.27l1.8-1.8m8.76-8.76,1.8-1.8M196.8,79.74,198.6,78m20.53-20.53L221,55.57M207.36,69.19l1.8-1.8M198.41,80.22l1.8-1.79m20-20,2.39-2.39M209,69.67l1.79-1.8M200,80.7l1.79-1.79m18.34-18.34,4-4M210.58,70.14l1.79-1.79M201.63,81.18l1.79-1.79m20-20,2.21-2.21M212.19,70.62,214,68.83m5.29-5.29,3.31-3.31M213.8,71.1l1.79-1.79m2.79-2.79,3.32-3.32m-6.3,8.38,1.8-1.79m.3-.3,3.31-3.32m-4.2,6.29,3.32-3.31m-3,5,3.44-3.44M220.23,73l1.79-1.8m-.18,2.28,1.79-1.8m9.57-9.57,2.25-2.25m-12,14.1,1.79-1.8m9.43-9.43,2.39-2.39m-12,14.09,1.79-1.79M234.47,65l4.2-4.2m-12,14.09,1.8-1.79m7.36-7.36L238,63.59m-9.74,11.82,1.8-1.79m-.19,2.27,1.79-1.79m.15-.15,1.73-1.73m-2.62,4.71,4.23-4.23m-122,124.06,1.62-1.62M246.07,63.87l.64-.63M231.46,78.49l3-3M113.19,198.85l3.7-3.71M245.19,66.85l3.13-3.14M233.07,79l.51-.52M113.19,200.94l5.79-5.8M246.34,67.78l2.38-2.38M113.19,203l3-3m1.93-1.94,1.59-1.58m-6.49,8.58,3-3m-3,5.07,3-3M241.65,78.74l2.29-2.3M137.11,183.27l.68-.68m-24.6,26.69,3-3M242,80.51l3.22-3.22M137.11,185.36l2.77-2.77m-26.69,28.78,3-3M243.57,81l.73-.73M128.36,196.2l1.06-1.06m7.69-7.69,4.85-4.86m-28.77,30.87,3-3m24.92-24.91,3-3m-15.52,15.52,3-3m5.6-5.61,3-3m-26.9,29,3-3m122-121.95,1.45-1.45M130.62,198.11l3-3m9.57-9.57,3-3m-9,9,3-3m-26.9,29,3-3M261.72,69.1,262.8,68M132.71,198.11l3-3m101.9-101.9,3.59-3.59M137.11,193.71l3-3m5.16-5.16,3-3m-35,37.13,3-3M260.83,72.07l3.57-3.57M134.79,198.11l5.3-5.29m99.1-99.1,1.57-1.57m-93.42,93.42,1.8-1.8M166.86,166l1.06-1m-54.73,56.82,3-3M262.42,72.57l1.95-1.94M136.88,198.11l3.21-3.2m26.77-26.78L170,165M113.19,223.9l3-3M234.57,102.51l.61-.61m-97.32,97.33,2.23-2.23m26.77-26.78,5.23-5.23m-58.9,61,3-3m142-142,.24-.24M137.86,201.31l2.23-2.23m93.59-93.59,3.11-3.11m-69.93,69.93,7.32-7.32m-61,63.08,3-3M257.29,84,260,81.23M137.86,203.4l2.23-2.23m94.72-94.72,2.41-2.41m-79.41,79.4.85-.85M173.29,168l3-3m-9.41,9.4,2.81-2.8m-56.48,58.57,5-5M272.43,70.91h0M137.86,205.49l2.23-2.23m118-118,2.79-2.79m-103,103,2.94-2.94M175,168.36l3.37-3.37m-11.49,11.49,3.21-3.2m-56.88,59,3-3M271.55,73.88l2.51-2.5m-156,156,2.23-2.23M259.65,85.78l.3-.29M137.86,207.58l2.23-2.24m36-36.05,4.3-4.3m-20.58,20.58,3-3m4-4,4.13-4.13m-57.8,59.89,3-3m155-155,4.46-4.46M120.17,227.35l.44-.44m56.25-56.25,5.67-5.67m-50.66,50.66.89-.89m34.1-34.11,5.51-5.5m-34.51,34.51,2.23-2.23M162,185.57l3-3m-51.74,53.83,3-3M274.88,74.73l2.39-2.4m-145.4,145.4,3-3m138-138,1.39-1.38M137.86,211.75l2.23-2.23M253.76,95.85,255.64,94M164,185.57l10.49-10.49m2.25-2.25,7.84-7.84m-71.43,73.52,3-3M276.49,75.21l1.1-1.1M131.87,219.82l5.06-5.06m132-132,.05,0M137.86,213.84l2.23-2.23M253.66,98l3.59-3.59m-91.12,91.13L186.7,165M113.19,240.6l3-3M268,85.77l2.54-2.54M127.43,226.35l1.24-1.23M255.27,98.51l1.14-1.13M131.87,221.91l8.22-8.22m27.08-27.08L188.79,165M113.37,242.5l3-3M267.12,88.74l4.42-4.42m-143,143,2.23-2.23M187.9,168l1.12-1.12M131.87,224l8.22-8.21m42.58-42.58,4.46-4.46m-20,19.95,2.24-2.23m.89-.89,4.46-4.46m-59.3,61.39,3-3m147.8-147.8,4.42-4.42m-140,140.05,9.48-9.48M250.22,107.74l1-1m-84.09,84.09,2.24-2.23m13.26-13.26,4.46-4.47m-14.74,14.75,4.46-4.46m-59.3,61.39,2.13-2.14M265.35,94.69l4.42-4.42M132.7,227.35l7.39-7.39M249.33,110.71l3.54-3.54m-85.7,85.7,2.24-2.23m13.26-13.27,4.46-4.46m-12.66,12.66,4.47-4.46m-59.3,61.39,0-.05M286.06,76.08l.86-.87M134.78,227.35l5.31-5.31M264.47,97.66l4.42-4.42M167.17,195l2.24-2.23m81.48-81.49,2-2m-76.31,76.31,4.46-4.46m1.65-1.65,4.46-4.46m-50.26,52.35,3.22-3.22m146-146,2.39-2.39M167.17,197l2.24-2.23m95-94.95L268,96.21m-89.36,89.36,8.48-8.49m10.57-10.56,1.53-1.53m-62.12,64.2,4.08-4.07M287.45,78.85l2.69-2.68m-123,123,2.24-2.23M266,100.34l1.79-1.8m-87,87,6.39-6.4M198.34,168l3-3m-62.95,65,1.72-1.71M289.36,79l2.39-2.4M141.05,227.35l2.23-2.23M286.57,81.82l2.21-2.21M167.17,201.22l2.24-2.23m98.17-98.18L269.37,99m-86.55,86.55,4.31-4.31M200.43,168l1-1m-2.62,2.63,1.48-1.49m-57.19,59.28,2.24-2.23M291,79.52l.09-.1M167.17,203.31l2.24-2.24M285.68,84.8l2.21-2.21m-103,103,2.22-2.22m82.06-82.06L271,99.5m-72.14,72.14,1.48-1.48m-55.1,57.19,2.23-2.23M284.8,87.77,287,85.56M167.17,205.39l2.24-2.23M270.8,101.77l1.79-1.79M187,185.57l.13-.14m72.92-72.91,1.28-1.28m-62.49,62.49,1.48-1.49m-53,55.11,2.23-2.23M283.91,90.74l2.21-2.21m-119,119,2.24-2.23m103-103,1.8-1.79m-75.36,75.36,1.48-1.49m60.22-60.22,2.4-2.39M149.4,227.35l2.23-2.23M283,93.71l2.21-2.21M167.17,209.57l2.24-2.23M274,102.73l1.8-1.79m-77,77,1.48-1.49m61.83-61.83,2.39-2.39m-54.4,54.4,1.61-1.61m-60.27,62.36,2.24-2.23M282.14,96.69l2.21-2.21M167.17,211.66l2.24-2.24M275.62,103.21l1.8-1.79M198.84,180l1.48-1.48m63.44-63.44,2.39-2.39M210.86,168l3-3m-60.27,62.36,2.18-2.19M299.53,81.39l1.87-1.87M167.17,213.74l2.24-2.23M281.26,99.66l2.21-2.21m-84.63,84.63,1.48-1.49m76.91-76.9,1.79-1.8m-67.74,67.74,1.49-1.48m52.6-52.6,2.39-2.39M213,168l1-1m-58.25,60.34.09-.1M300.62,82.39,303,80M167.17,215.83l2.24-2.23M278.84,104.17l3.74-3.75m-83.74,83.75,1.48-1.49M267,116l2.39-2.39m-58,58,1.35-1.36m-45.6,47.69,2.24-2.23M301,84.13l3.66-3.65M198.84,186.26l1.48-1.49m80.13-80.12,1.79-1.8m-13.65,13.66,2.39-2.4M167.17,220l2.24-2.24M303.83,83.35l1.59-1.59M198.84,188.34l1.48-1.48M300.08,87.1l2.17-2.17M270.19,117l2.4-2.4m9.47-9.47,1.79-1.79M162.57,226.69l1.58-1.57m135-135,2.18-2.17M167.17,222.09l2.24-2.23M283.66,105.6l1.8-1.79m-86.62,86.62,1.48-1.49m71.48-71.48,2.39-2.39m-51.6,51.61,1.69-1.69m-61.06,63.14,3-3M298.31,93l2.17-2.17M167.17,224.18l2.24-2.23M285.27,106.08l1.8-1.79m-88.23,88.23,1.48-1.49m73.09-73.09,2.39-2.39M223.39,168l3-3m-62.17,64.25,5.22-5.21m128-128,2.17-2.18M198.84,194.61l1.48-1.49m86.56-86.56,1.79-1.79m-64.94,64.94,1.49-1.48M275,118.42l2.39-2.39M225.48,168l.88-.89m-61.19,63.28,4.24-4.24M298,97.51l.69-.69m-99.87,99.87,1.48-1.48M288.49,107l1.79-1.79m-66.34,66.34,1.28-1.28m51.41-51.41,2.39-2.39M166.18,231.44l5.21-5.21m142.5-142.5.38-.38M198.84,198.78l1.48-1.49m89.78-89.77,1.79-1.8m-13.65,13.66,2.39-2.39M167.21,232.49l6.26-6.26m140-140,2.4-2.39m-117,117,1.48-1.49m94.45-94.45,1-1m-15.91,15.91,2.39-2.39m9.47-9.47,1.79-1.8M168.26,233.53l7.3-7.3M315.09,86.7l2.4-2.39M198.84,203l1.48-1.49m93-93,2.75-2.75m-61,61L236.8,165m44.65-44.65.56-.55M169.33,234.55l8.32-8.32m139-139,2.39-2.4M198.84,205l1.48-1.48M314.4,89.48l2.21-2.21M235.91,168l2.89-2.9M294.92,109l1.8-1.8M170.43,235.54l9.31-9.31M318.31,87.66l.59-.59M198.84,207.13l1.48-1.49M313.52,92.45l2.21-2.21m-79.55,79.55,1.48-1.49m58.87-58.87,1.8-1.79M238,168l.8-.81m-67.26,69.35,10.28-10.28M312.63,95.42l2.21-2.21m-116,116,1.48-1.49m36.14-36.14,1.2-1.2m-65,67.07,11.23-11.23M311.75,98.39,314,96.18M198.84,211.3l1.48-1.48m-26.49,28.57L185.27,227M310.86,101.37l2.21-2.21M198.84,213.39l1.48-1.49m90.15-90.15,1.42-1.41M175,239.3,185.27,229M310,104.34l2.21-2.21M199.37,215l.95-1m90.78-90.78,2.4-2.39m-46,46,1.85-1.84m-73.11,75.2,9.05-9.06M327.36,89l1.39-1.38M248.44,168l3-3m57.68-57.68,2.21-2.21m-18.59,18.59,2.4-2.39m9.46-9.47,1.8-1.8m-128.93,131,7.83-7.83M328,90.53l2.39-2.39m-81,81L253.5,165m54.71-54.71,2.21-2.21m-16.1,16.1,1.21-1.21m10.65-10.65,1.8-1.8M178.69,241.89l7-7m143.1-143.1,3.2-3.2m-82.59,82.59,6.22-6.22m52.2-52.2,1.8-1.8M180,242.71l7.78-7.79M331.18,91.49l2.07-2.08M198.84,223.83l1.48-1.49M327.88,94.79l2.21-2.21M249.37,173.3l8.31-8.31m51.72-51.72,1.79-1.8m-129.94,132,8.58-8.58M327,97.76l2.21-2.21M198.84,225.92l1.48-1.49M311,113.74l1.3-1.3m-62.94,62.95L259.76,165m-77.19,79.28,9.35-9.35M326.11,100.73l2.21-2.21M198.84,228l1.48-1.48m54.19-54.19,7.34-7.34m-12.48,12.48,4.41-4.41m-69.87,72,10.1-10.1M325.22,103.71l2.21-2.21M198.84,230.09l1.48-1.49M304,124.93l.76-.76m-55.39,55.39,4.41-4.41m1.77-1.77,8.39-8.39m-78.67,80.75,10.82-10.82M324.34,106.68l2.21-2.21M198.84,232.18l1.48-1.49M304,127l2.4-2.39m-57,57,4.41-4.42m9.27-9.26,3-3m-9.43,9.44,2.88-2.89m-74.2,76.29,12.91-12.91M323.45,109.65l2.21-2.21M198.84,234.27l1.48-1.49M318.9,114.2l.34-.33m-69.87,69.87,4.41-4.42m51.8-51.8,2.39-2.39m-50.35,50.35,2.23-2.23m4.9-4.9,3.36-3.36m-82.84,84.93,2.24-2.24m157.6-157.6,2.51-2.51M188.08,247.11l12.24-12.24M340.84,94.35,343.22,92m-93.6,93.6,4.46-4.46m68.49-68.49,2.21-2.21m-66.12,66.12,2.11-2.11m58.28-58.28,1.8-1.8m-54.93,54.93,3.71-3.72M307.19,128l2.39-2.39M185.27,252l2.24-2.23M342.44,94.84l7.08-7.08m-160,160,12.84-12.84m118.3-118.3,3.23-3.24m-73,73,5.32-5.31m52.63-52.63,2.39-2.39M259.7,177.58l2.43-2.44m4.52-4.51,3-3m-84.36,86.45,2.24-2.23M348.7,90.67l2.08-2.08M191,248.38l13.46-13.46M343.34,96l3.32-3.31m-95.81,95.8,1.49-1.49m69.93-69.92,1.79-1.8M253.8,185.57l4.46-4.46M310.41,129l2.39-2.39m-52.07,52.06,3.54-3.53m2.33-2.34,3-3m-84.36,86.45,2.24-2.23M342.46,99l3.31-3.32M192.48,249l14.05-14.05M323.88,117.58l1.79-1.8M250.85,190.6l1.49-1.49M312,129.44l2.39-2.4m-58.53,58.53,4.47-4.46m1.42-1.43,7.86-7.86m-84.36,86.45,2.24-2.24M341.57,102l3.32-3.32M194,249.54l14.62-14.62M325.49,118.05l.3-.3m-74.94,74.94,1.49-1.49m61.28-61.28,2.4-2.4m-58,58.05,4.46-4.46m.38-.38,6.82-6.83m-84.36,86.45,2.24-2.23M340.69,104.94l3.31-3.32M195.55,250.08l15.16-15.16M315.23,130.39l2.39-2.39m-66.77,66.77,1.49-1.48m7.72-7.72,9.57-9.58m-84.36,86.45,2.24-2.23M339.8,107.91l3.32-3.31m-146,146,15.66-15.66m104-104,2.39-2.39m-68.38,68.38,1.49-1.49m9.81-9.8,7.48-7.49m-84.36,86.45,2.69-2.69M359.31,90.49l1.62-1.62M198.75,251.06l16.13-16.14m124-124,3.31-3.31M250.85,199l1.49-1.49m66.11-66.11,1.08-1.08m-55.3,55.3,5.4-5.4M181.86,270l1.14-1.13M360.11,91.78l2.61-2.61M185.27,266.61l4.21-4.2M338,113.86l3.32-3.32m-141,141L217,234.92M332.38,119.51l1.33-1.33M250.85,201l1.49-1.49m14-14,3.31-3.32m-87.51,89.61,3-3M362,92l.48-.49M185.27,268.7l5.76-5.76M337.15,116.83l3.31-3.32M202.07,251.91l17-17M333.53,120.45l1.79-1.8m-84.47,84.47,1.49-1.49m14.75-14.75,4.29-4.29M184.2,271.86l8.41-8.4M335.14,120.93l4.44-4.44M203.78,252.28l17.36-17.36m49.35-49.35,3-3m-22.62,22.62,1.49-1.49M267.09,189l2.24-2.23m-84.06,86.14,8.94-8.94M336.74,121.41l1.95-2M205.53,252.62l17.7-17.7m49.35-49.35,3-3M250.85,207.3l1.49-1.49m14.75-14.75,2.24-2.23M185.27,275l10.57-10.56M338.35,121.89l1.8-1.8M207.32,252.92l18-18M328,132.24l.88-.89m-78,78,1.49-1.48m22.33-22.33,3-3m-10.55,10.55,2.24-2.23m-84.06,86.14,12.22-12.22M371.25,91.07,372.34,90M209.15,253.17l18.25-18.25M340,122.36l1.8-1.79m-90.91,90.9,1.49-1.49m75.76-75.76,2.39-2.39m-63.4,63.4,2.24-2.23m7.43-7.43,1.92-1.93m-93.06,95.15,13.56-13.55M371.52,92.9l2.72-2.73M211,253.39l15.3-15.31M341.57,122.84l1.79-1.79m-116.1,116.1.77-.77M329.71,134.7l2.39-2.39m-65,65,2.24-2.23m-81.62,83.7,13.18-13.18M373.42,93.08l2.72-2.72m-163.2,163.2,13.39-13.39M343.18,123.32l1.79-1.79m-77.88,77.88,2.24-2.23m62-62,1.73-1.73M190.91,277.68,202.64,266M373.87,94.72,378,90.54M214.91,253.67l11.42-11.41M344.79,123.8l1.79-1.79m-79.49,79.48,2.24-2.23M193,277.68l11.41-11.42M377.22,93.45l.86-.86M216.94,253.74l9.39-9.4M373,97.69l3.32-3.31M267.09,203.58l2.24-2.23m77.07-77.07,1.72-1.72m-60.76,60.75.72-.72M194,278.79l12.25-12.25M372.1,100.67l3.31-3.32M219,253.75l7.32-7.32m61-61,2.81-2.81m-23.08,23.08,2.24-2.23m-73.27,75.35.81-.8M371.21,103.64l3.32-3.32M197.17,277.68l1.14-1.14m91-91,3-3m-89.9,89.9,5.71-5.71m59-59,2.24-2.23m-48.17,48.16,5.17-5.17m-22.11,24.2L210,267M370.33,106.61l3.31-3.31M223.37,253.57l3-3M341.52,135.42l.23-.24m-74.66,74.66,2.24-2.23m22-22,3-3m-88.78,90.87,6.31-6.31m175-175,.71-.71M225.66,253.37l.67-.68M369.44,109.58l3.32-3.31M267.09,211.93l2.24-2.23M341,138.06l2.39-2.4m-49.9,49.91,3-3m-89.89,92,7.3-7.3M386.73,94.38l2.72-2.72M267.09,214l2.24-2.23m99.23-99.23,3.31-3.32m-76.33,76.33,3-3m55.92-55.92,1.79-1.79m-13.65,13.65,2.39-2.39M207.13,276.07l8.71-8.72M388.63,94.57l.89-.89M268.25,215l1.08-1.08m98.34-98.34,3.32-3.32m-74.58,74.58,3-3m56.66-56.66,1.79-1.79M344.19,139l2.38-2.39m-139,141.06,10.29-10.29M366.79,118.5l3.31-3.32m-73.69,73.69,3-3m58.27-58.27,1.79-1.79M208.64,278.73,220,267.37m145.9-145.9,3.32-3.31M296.41,191l3-3m59.87-59.88,1.8-1.79M209.76,279.7l12.4-12.4M365,124.44l3.31-3.31m-71.92,71.92,3-3m61.48-61.48,1.8-1.79m-152.91,155,14.62-14.62m173.9-173.9.68-.68M296.41,195.14l3-3m63.09-63.09,5-5M209.76,283.88,226.66,267M398.14,95.5l2.72-2.73M296.41,197.22l3-3m64.7-64.7,2.47-2.48M209.76,286,229,266.71M399.2,96.53,402.77,93M296.41,199.31l4.18-4.17M365.7,130l1.79-1.8m-13.33,13.34,2.07-2.08M209.76,288.05l21.69-21.69M401.94,95.87l2.73-2.73M296.41,201.4l2.23-2.22M398.31,99.5l3.32-3.32M299.7,198.11l3-3m64.64-64.64,1.79-1.79m-13.65,13.66,2.39-2.4M208.64,291.26l.69-.69M403.85,96.05l2.72-2.72M209.76,290.14,234,265.93M397.43,102.47l3.31-3.32M298.38,201.52l.24-.24m70.3-70.3,1.79-1.79m-68.93,68.92,3-3m52.29-52.3,2.4-2.39M208.64,293.34l28-27.94M405.75,96.24l.83-.83M303.87,198.11l1.65-1.65m91-91,3.32-3.31m-41.2,41.19,2.39-2.39m9.47-9.47,1.8-1.79M209.76,294.32l29.56-29.57M395.66,108.41,399,105.1m-40,40,3.64-3.65m9.47-9.47,1.7-1.7M209.76,296.4l17-17m168-168,3.32-3.32M227.37,278.79l.49-.49M359,147.14l5.25-5.25M228.48,277.68l.8-.8m67.13-67.13,1.41-1.41m-64.13,64.13,8.5-8.5m-32.43,34.52,17-17M393.89,114.36,397.2,111M235.44,272.81l9.78-9.79M363.49,144.76l2.39-2.39m-69.47,69.47,2.15-2.15M359,149.23l3-3M209.76,300.58l17-17M415.34,95l.74-.74M236.72,273.61l11.74-11.73M393,117.33l3.32-3.31m-99.91,99.9,2.18-2.17m66.51-66.51,2.39-2.39M314.2,196.13l1-1m44.63-44.63,2.16-2.17M209.76,302.67l17-17M415.26,97.17,418,94.44M237.65,274.77l13.58-13.57M392.12,120.3l3.31-3.31m-98.77,98.78,1.87-1.88m68.18-68.17,2.39-2.39m-69.92,69.91,1.49-1.49m61.24-61.24.08-.08m-47.68,47.68,3-3M209.76,304.75l17-17M417.16,97.35l2.72-2.72M238.17,276.34l13.06-13.06M394.76,119.75l2-2m-95.52,95.52,1.49-1.49m88.47-88.47,3.32-3.32M316.4,198.11l3-3m60.8-60.8,1.8-1.8M368.31,146.2l2.4-2.4M208.64,308l18.1-18.1M419.06,97.54l2.72-2.72M238.92,277.68l12.31-12.31M396.66,119.94l2-2m-95.33,95.33,1.49-1.49m85.5-85.5,3.32-3.32m-75.19,75.18,3-3m60.32-60.33,1.8-1.79m-13.66,13.66,2.39-2.4M208.9,309.79l19-19m192-192,3-3m-183,183,11.34-11.33M398.56,120.13l2-2m-95.14,95.14,1.48-1.49m82.54-82.53,3.31-3.31m-72.44,72.44,3-3m60.08-60.08,1.8-1.79M359,159.67l.48-.48m12-12,2.39-2.39M211,309.79l16.87-16.87m192-192,3-3M242,278.79l9.91-9.9M400.46,120.31l2-2m-95,95,1.49-1.49m79.56-79.56,3.32-3.31m-71.56,71.55,3-3M385,135.77l1.79-1.79M359,161.76l2.56-2.57m11.56-11.56,2.39-2.39M214.19,308.67l12.55-12.55M419.89,103l3-3M245.18,277.68l8.79-8.79M402.36,120.5l2-2m-94.77,94.77,1.49-1.49m75.5-75.5,4.4-4.4m-70.67,70.67,3-3m51.44-51.44,2.39-2.39M359,163.84l3-3M216.28,308.67l10.46-10.46M419.89,105.06l3-3M247.27,277.68l4-4M404,120.93l2.27-2.28M253.09,271.86l1.54-1.55M388.22,136.73l1.91-1.91m-78.42,78.42,1.49-1.49m63.16-63.16,2.39-2.39m-58.41,58.41,3-3m36.25-36.24L362,163M218.36,308.67l8.38-8.38M419.89,107.15l3-3M248.24,278.79l3-3M404,123l4.18-4.18m-94.4,94.4,1.48-1.49m74.55-74.54,1.79-1.8M320.34,206.7l3-3M378,149.07l2.4-2.39m-18.71,18.71L362,165M220.45,308.67l6.29-6.29M419.89,109.24l3-3M250.33,278.79l.9-.89M408.07,121.06l1.8-1.8m-94,94,1.49-1.49M404,125.1l2.23-2.23m-85.91,85.91,3-3m68.12-68.12,1.8-1.8m-13.66,13.66,2.4-2.39M222.54,308.67l4.2-4.2M419.89,111.32l3-3M318,213.24l1.49-1.49M404,127.19l2.23-2.23m-85.91,85.91,3-3M393,138.17l1.8-1.8m-59.75,59.75,1-1M381.18,150l2.39-2.39M224.14,309.16l3.09-3.09M419.89,113.41l3-3m-102.8,102.8,3.25-3.26M404,129.28l2.23-2.23m-71.16,71.16,3.07-3.07m56.49-56.49,1.8-1.8M359,174.28l.21-.22m23.56-23.55,2.39-2.4M225.6,309.79l2.26-2.26m192-192,3-3M320.34,215.05l3-3M404,131.37l2.23-2.23m-71.16,71.15,5.16-5.15m56-56,1.79-1.79m-39,39,2.3-2.31M384.4,151l2.39-2.4m-159.1,161.2.17-.18m192-192,3-3M320.34,217.13l3-3m93.24-93.24,1.15-1.15m-82.61,82.61,3-3m65.95-66,2.23-2.23m-66.89,66.89,3-3m55.54-55.54,1.79-1.79M359,178.46l3-3m24-24,2.39-2.39m-68.06,70.15,3-3m96.58-96.58,3-3m-87.77,87.77,3-3M417.58,122l2-2m-78.16,78.16,2.75-2.75M404,135.54l2.23-2.23M359.3,180.26l2.69-2.69m37.49-37.49,1.79-1.79m-13.65,13.65,2.39-2.39m-69.67,71.76,3-3m96.17-96.16,3.38-3.38m-87.77,87.77,3-3m65.95-66,2.23-2.23m-62.72,62.71.67-.67m56.89-56.88,1.79-1.79m-41.5,41.49.61-.61m27.23-27.23,2.28-2.27M320.34,223.4l3-3m96.58-96.57,3-3m-87.77,87.77,3-3M402.69,141l3.56-3.56m-17,17,2.23-2.23m-71.16,73.24,3-3m96.58-96.57,3-3m-87.77,87.77,3-3m65.2-65.21,3-3m-17,17,2.23-2.24m-71.16,73.25,3-3M419.89,128l3-3m-87.77,87.77,3-3m65.2-65.2,3-3m-17,17,2.23-2.23m-71.16,73.25,3-3m96.58-96.57,3-3m-87.77,87.77,3-3m66.59-66.59,1.59-1.59m-53.37,53.37,2-2m34.41-34.41,2.23-2.23M359,191l2-2m-40.72,42.81,3-3m96.58-96.57,3-3M335.09,217l3-3m51.2-51.2,2.23-2.23M354,198.11l3-3m2.08-2.07,3-3M314.2,240l.45-.45M419.89,134.29l3-3M320.34,233.83l3-3m66-66,2.23-2.24m-56.41,56.41,3-3m18-18,5.93-5.93M314.2,242.06l2.54-2.54M419.89,136.37l3-3M320.34,235.92l3-3m66-65.95,2.23-2.23m-56.41,56.41,3-3m20.07-20.08,3.85-3.84M315.85,242.5l3-3M419.89,138.46l3-3M320.34,238l3-3m80-80,1.06-1m-69.24,69.24,3-3m51.2-51.2,2.23-2.23m-31.27,31.26,1.76-1.76M317.94,242.5l5.37-5.38m96.58-96.57,3-3m-87.77,87.77,3-3m65.2-65.21,3-3m-17,17,2.23-2.23M320,242.5l3.28-3.29m96.58-96.58,3-3m-87.77,87.77,3-3m65.2-65.2,3-3m-17,17L391.5,171M322.11,242.5l1.2-1.21m96.58-96.57,3-3m-87.77,87.77,3-3m65.2-65.21,4.68-4.67m-18.68,18.68,2.23-2.23M335.09,231.6l3-3m81.82-81.82,3-3m-63.1,63.1,2-2m45.3-45.3,1.67-1.66m-19.46,19.46,2.23-2.23m12.92-12.93,1.83-1.82m-71.16,73.24,3-3m81.82-81.82,3-3M359.76,209l2.23-2.23m27.28-27.27,2.23-2.23m-29.14,29.13,1.49-1.49m-28.76,30.85,3-3M419.89,151l3-3m-63.1,63.1,2.23-2.23m27.28-27.28,2.23-2.23m-27.05,27,1.49-1.49m-30.85,32.94,3-3m81.82-81.82,3-3m-63.1,63.1L362,211m27.28-27.28,2.23-2.23m-25,25,1.48-1.49m-32.93,35,3-3m81.82-81.82,3-3m-63.1,63.1,2.23-2.23m55.42-55.41,1-1m-49.77,49.76,1.49-1.49m33.16-33.16.82-.82m-14.82,14.83,2.23-2.23M335.09,242l3-3m79.43-79.44,5.36-5.36m-63.1,63.1,2.23-2.23m41.28-41.28,2.91-2.91m-35.47,35.47,1.49-1.49m17.07-17.06,2.23-2.23M336.72,242.5l3-3m79.89-79.89,3.27-3.27m-63.1,63.1,2.23-2.23M403.27,176l3-3M372.8,206.42l1.49-1.49m15-15,2.23-2.23M338.81,242.5l3-3m79.88-79.89,1.19-1.18m-63.1,63.1,2.23-2.23M403.27,178l3-3m-31.36,31.36.74-.74M389.27,192l2.23-2.23M340.9,242.5l3-3m60.32-60.31,2.06-2.06m-46.49,46.48L362,221.4m27.28-27.27,2.23-2.23M343,242.5l1.21-1.22m45.07-45.06L391.5,194m-31.74,31.73,2.23-2.23m-2.23,4.32,2.23-2.23m27.28-27.28,2.23-2.23m-9.05,9.05.19-.19m-22.88,25,4-4m25.5-25.49,2.23-2.23m-8.26,8.26,1.48-1.49m-23.57,25.66.84-.84m41.28-41.28.59-.58m-40.23,40.22,2.23-2.23m23.41-23.4,2.23-2.23m-6.18,6.17,1.49-1.49m-21.09,23.18,2.23-2.23m35.32-35.32,2.67-2.67m-18.53,18.53,1.49-1.49m.37-.36,2.23-2.24m-23.7,25.78,2.24-2.23m33.23-33.23,3-3m-17,17,2.23-2.23m-21.61,23.69,2.23-2.23m31.15-31.15,3-3m-17,17,2.23-2.23M372,228.11l2.23-2.23M404,196.14l2.3-2.3m-17,17,2.23-2.23m-17.43,19.51,1.56-1.56M406,196.14l.21-.21m-17,17,2.23-2.24M389.27,215l2.23-2.23m-2.23,4.32,2.23-2.23M382.45,226l.11-.12m20.71-20.71.35-.35m-14.35,14.36L391.5,217m-9.05,11.13,2.2-2.2m18.62-18.62,2.44-2.44m-16.44,16.45L391.5,219m-7,9.08,2.23-2.23m16.54-16.54,3-3m-17,17,2.23-2.23m-4.91,7,2.23-2.23m14.45-14.45,3-3m-17,17,2.23-2.23m-2.82,4.9,2.82-2.81m12.22-12.22,2.53-2.54m-17,19.07,3.73-3.73m12.8-12.8.45-.45m-15.88,18,1.13-1.12m1.35-1.36,2.23-2.23m-.14,2.23,2.23-2.23m-.14,2.23,2.23-2.23m4-4,.12-.11m-4.28,6.35,2.24-2.23m1.92-1.92,2.2-2.2m-4.27,6.35,5.05-5m-3,5.06,3-3m-3,5.06,3-3M405,230.59l1.26-1.26M168,83.45l-9.28,2.82.64,2.13,2.75-.83,7.89,26-1.85.57L169,117l6.27-1.9-.86-2.85-2.28.7-6.07-20L178.9,89l2.19,7.19,1.42-.44-1.9-6.24,2.65.79.64-2.14L168,83.45m16.53,18.86-1.42.43L185,109l-2.29.7.87,2.85,4.48-1.37-.87-2.84-.77.23-1.9-6.24M195,93.83,199,95l.63-2.14-9.18-2.73-.63,2.13,2.64.79,3.8,12.5-.77.23.86,2.85,4.59-1.39-.87-2.85-1.68.51L195,93.83M143.06,246.54V241m0,0h-3v-4.17h-3v2.68h-8.75v3h8.75v8.17h2.19m17,11.6v2.66h10.86v10.89H140.09v-2h-3v7.37h3v-3.1h29.32v3.22h2.23v-9.41h3.41v-3h-3.41V253.58l-1.86-1.25L156.47,241m0,0h-6.59v4.46h3.75m-14.33,12h-2.19V267h3v-2h4.44v-2.66m-4.44,27.56h-3V296h3v-6.2m31.55-1.74h-2.23v34.59H158.16v1.49h11.25v19.09h2.23V288.09m-20.3,34.59H140.09v-3.1h-3v8.83h3v-4.24h11.25v-1.49m-11.25-18h-3v6.2h3v-6.2M77.48,258.42h-3V266h3v-7.61m0,16.29h-3v2.48H64.28v1.48H74.51v2.48h3v-6.44m-20,2.48H47.23v-3.41H45v8h2.23v-3.1H57.46v-1.48m-24.23-2.48h-3v6.44h3v-6.44m0-16.29h-3V266h3v-7.61m24.23,33.27H47.23v-3.1H45v7.93h2.23v-3.35H57.46ZM158.74,86.49l.36-.35m.13,2,2.87-2.86m-.35,2.44,3.35-3.35M162.5,89,168,83.47m-5,7.13L169.64,84m-6.16,8.25,7.77-7.78M164,93.8l8.9-8.9m-8.41,10.5,1.79-1.79m1-1,7.18-7.18M164.94,97l1.78-1.79m3.57-3.56,5.78-5.79M165.42,98.6l1.79-1.79m6.07-6.07,4.4-4.4M165.91,100.2l1.79-1.79m8.58-8.58,3-3m-12.9,15,1.79-1.78M179,89.23l1.93-1.93m-14,16.11,1.79-1.79m12-12.05,1.8-1.79m-3.06,3,1.19-1.19M167.37,105l1.79-1.79m13.16-13.17,1.46-1.45m-3.84,3.84,1.19-1.2m-13.28,15.37,1.79-1.79M180.42,94l1.2-1.2m-13.28,15.37,1.79-1.79m10.78-10.78,1.19-1.2m-13.27,15.37,1.79-1.79m-1.31,3.39,1.79-1.79m19.27-19.26.18-.19m-22.3,24.39.71-.71m21.41-21.41,1.79-1.79M169.8,113l1.79-1.79m-2.86,5,3.34-3.35M192,92.92l1.8-1.79m-23.28,25.36,4-4M192.79,94.2l2.59-2.59m-12,12,1.2-1.19M30.25,258.82l.4-.4M195.19,93.88l1.8-1.79m-23.5,23.49,1.47-1.47M193.27,95.8,195.06,94m-11.23,11.23,1.19-1.19M30.25,260.91l2.49-2.49M196.8,94.36l1.79-1.79m-14.27,14.27,1.19-1.19m8.25-8.25,1.79-1.79M30.25,263l3-3M198.41,94.84l.88-.88m-16.4,16.4,1.07-1.07M194.25,99,196,97.21M184.8,108.45l1.19-1.2M30.25,265.08l3-3M194.73,100.6l1.79-1.79M183.38,112l3.57-3.58M31.39,266l1.84-1.83m162-162,1.79-1.79m-11.52,11.53,2.13-2.13m8.09-6,1.78-1.78m-2,4,.41-.4m.24-.25,1.79-1.78m-1.95,4,2.92-2.91M30.25,275.52l.81-.81M197.48,108.29l2.88-2.88M30.25,277.61l2.9-2.9M200.48,107.38l.37-.37M30.25,279.7l3-3m-2.35,4.43,2.35-2.34M33,281.15l.26-.25M45,275.38l1.6-1.6M45,277.47l2.23-2.23M45,279.56l2.37-2.37M45,281.64l2.23-2.23m.74-.74,1.49-1.48M47,281.77l.27-.27m2.83-2.83,1.49-1.48m.6,1.48,1.48-1.48m.6,1.48,1.49-1.48M45,290l1.41-1.4m28.1-28.1,2.06-2.07M56.32,278.67l1.14-1.14M45,292.08l2.23-2.23m27.28-27.28,3-3M45,294.17l2.48-2.48m27-27,3-3M45,296.25,47.23,294m28-28,2.26-2.26m-29.4,29.4,1.49-1.48m-2.75,4.83.41-.41M77.31,266l.17-.17M50.17,293.17l1.49-1.48m13-13,1.49-1.48m-13.9,16,1.49-1.48m13-13,1.49-1.48m-13.9,16,1.48-1.48m13-13,1.49-1.48m-13.9,16,1-1m17.05-17,.38-.39m-4,4,1.49-1.48m.6,1.48,1.49-1.48m0,0L77,274.71m-2.47,4.56,3-3m-2.76,4.85,2.76-2.76m-.67,2.76.67-.68M128.36,240l.51-.52m-.51,2.6,2.6-2.6m-.89,3,3-3m-.89,3,3-3m2-2,.7-.7m-3.56,5.66,5.65-5.66m-3.56,5.66,3.75-3.76m-3,5.07,3-3m-3,5.06L142,241m-4.89,7,5.95-5.95m-5.95,8,5.95-5.95m-4.47,6.55,1.65-1.64m1.92-1.92.9-.91m6.82-4.73.47-.46m-.47,2.55,2.55-2.55m-15.32,17.41.93-.93m12-12,4.46-4.46M137.11,260.5l2.46-2.45m12.58-12.58,4.39-4.39m-19.43,21.51,3.27-3.26m13.83-13.84,3.36-3.35m-20.46,22.54,4.26-4.26M156,245.8l2.63-2.63m-21.51,23.6,5.44-5.44m14.94-14.94,2.19-2.2M139,267l1.09-1.08m18.69-18.7,2-2M141,264.93l2.88-2.89m-.79,2.89,1.4-1.41m15.36-15.35,2-2m-1.06,3.15,2.18-2.18m-25.88,28,1.34-1.34m23.09-23.1,2.59-2.59m-27,29.11,3-3m22-22,3.24-3.25m-28.18,30.27,3.47-3.47m21.66-21.66,4.23-4.23m-29.13,31.22,2.75-2.75m21.77-21.77,5.8-5.8m-27.22,27.22,2.23-2.23m-3.24,5.33.66-.66m16.22-16.22,12.57-12.57m-26.35,26.35,2.23-2.23m-.14,2.23,2.23-2.23m10.89-10.89,12.37-12.37M146.7,278.05l2.23-2.23m10.89-10.89,11.54-11.53m-22.57,24.65,2.23-2.23m10.89-10.89,9.73-9.73m-34.53,36.62,2-2m24.9-24.9,7.64-7.64m-20.76,20.76,2.23-2.23m-16,18.08,3-3m26-26,5.55-5.55M153,278.05l2.24-2.23M137.11,296l3-3m27.08-27.09,4.47-4.47m-16.59,16.59,2.23-2.23M139.16,296l.93-.93M167.17,268l4.47-4.47m-14.5,14.5,2.23-2.23m-.14,2.23,2.23-2.23m5.71-5.72,4.47-4.46m-10.33,12.41,2.24-2.23m3.62-3.63,4.47-4.46m-8.24,10.32,2.23-2.23m1.54-1.54,5.4-5.39m-35.46,37.54,1.73-1.73m32.84-32.84,3-3m-9.16,9.16,6.15-6.15m-34.53,36.61,3-3m33.68-33.68,1.28-1.28m-7.47,7.47,4.06-4.06M137.11,310.6l3-3m29.32-29.32,2.23-2.23M138.9,310.9l1.19-1.19m29.32-29.31,2.23-2.24m-1,3.11,1-1M137.11,321l1.46-1.46m30.84-30.83.65-.66m-32.95,35,3-3m29.32-29.32,2.23-2.23m-34.53,36.61,3-3m29.32-29.32,2.23-2.23M137.11,327.3l3-3M169.41,295l2.23-2.23m-31.39,31.39,1.48-1.49m-3.64,5.73,2-2m29.32-29.32,2.23-2.23m-29.31,29.31,1.49-1.49m.6,1.49,1.49-1.49m23.5-23.5,2.23-2.23m-25.13,27.22,1.49-1.49m21.41-21.41,2.23-2.23m-23,25.13,1.48-1.49m19.33-19.32,2.23-2.23m-21,23,.66-.66m18.07-18.07,2.23-2.23m-2.23,4.32,2.23-2.23m-2.23,4.32,2.23-2.23M158.16,323l.27-.28m11-11,2.23-2.24M159,324.17l1.49-1.49m8.89-8.89,2.23-2.23m-10.52,12.61,1.49-1.49m6.8-6.8,2.23-2.23m-8.43,10.52,1.49-1.49m4.71-4.71,2.23-2.23m-6.34,8.43,1.48-1.49m2.63-2.62,2.23-2.24m-4.26,6.35,1.49-1.49m.54-.54,2.23-2.23m-2.23,4.32,2.23-2.23m-2.23,4.32,2.23-2.23m-2.23,4.32,2.23-2.24m-2.23,4.32,2.23-2.23m-2.23,4.32,2.23-2.23m-2.23,4.32,2.23-2.23m-2.23,4.32,2.23-2.24m-2.23,4.32,2.23-2.23m-2.23,4.32,2.23-2.23M169.41,343l2.23-2.23m-.39,2.47.39-.39M30.25,296.52V294H14.38v-3H30.25v-1.24h3v6.69h-3m17,10.17H74.51v-2h3v6.2h-3v-2H47.23v3.28H45v-8.86h2.23v3.35m-17-3.35h3v7.56h-3v-2.11H14.38v-3H30.25v-2.48m17,15.68H45v41.72h2.23v-36.2H74.51v3.87h3v-8.83h-3v2.73H47.23V319m-17,3.29H14.38v20.58h3V324.54H31v4.8h2.24v-9.76h-3v2.73M22.32,363H31v13.64h4.72v-2.24H33.23V336.16H31v24.58H17.36v-9.18h-3v12.15H.25v12.55h3v-9.57h17.6v6.54h1.49V363m37.81-6V340H59v-3.71h3.72V340H61.61v17h1.12v3.72H59V357h1.12m23.86.74H77.48v-3.5h-3v6.48H84v-3m-6.51-12.18v-8.49h-3v8.49h3m15.19,15.16v-3H104.2v3H92.67m29.88,0v-3H111v3h11.53M116.66,405V376.61h20.65v-2.24H114.43V405H100.79V374.37H56.53v2.24h23.8v7.19h1.49v-7.19H98.56V405h-4v3h25.81v-3h-3.68m-69.43,0h3.94v3H47.23v3h-12v-3H45v-19.9H37.07v-1.49H45v-10H42.52v-2.24h7.19v2.24H47.23V405M22.32,386.58h7.93v1.49h-27v1.65h-3v-4.78h3v1.64h17.6v-6.53h1.49v6.53M3.23,398.4V408H13v3H.25V398.4h3m18.44,12.54v-3h4.89v3H21.67m38.18-3v-3h7.87v3H59.85m26,0H76.4v-3h3.93V390.61h1.49V405h4v3M129,408h7.36v-3H129v3m16,0h10.42v-3h-5.25V376.61h19.18v5.2h2.23v-5.2h3.41v-2.24H144.13v2.24h4.61V405h-3.68v3m24.35-5.21h2.23V408h13.63V376.61h-3.41v-2.24h15.75v2.24h-10.1V408h3v3H171.64v2.17h-3V408h-4.5v-3h5.25v-2.23m-32.3-42h-5.89v-3h5.89v-3.5h3v4.25h29.32v-8.43h2.23v10.66H137.11m0-23.65v8.49h3v-8.49h-3m58.64-27.3h1.12v-3.72h-1.12V294.29h1.12v-3.72h-3.72v1.12H189v-1.12h-3.72v3.72H189v-1.12h4.16v1.12h1.11v11.78h-1.11v1.11H189v-1.11h-3.72v3.72H189v-1.12h4.16v1.12h1.11v11.77h-1.11v1.12H189v-1.12h-3.72v3.72H189v-1.11h4.16v1.11h1.11v11.78h-1.11v1.12H189v-1.12h-3.72v3.72H189v-1.12h4.16v1.12h3.72v-1.12h11.77v1.12h3.72v-3.72h-1.11V325.28h1.11v-3.72h-3.72v1.12H196.87v-1.12h-1.12V309.79m45,0h-1.12v-3.72h1.12V294.29h-1.12v-3.72h3.72v1.12h4.16v-1.12h3.72v3.72h-3.72v-1.12h-4.16v1.12h-1.11v11.78h1.11v1.11h4.16v-1.11h3.72v3.72h-3.72v-1.12h-4.16v1.12h-1.11v11.77h1.11v1.12h4.16v-1.12h3.72v3.72h-3.72v-1.11h-4.16v1.11h-1.11v11.78h1.11v1.12h4.16v-1.12h3.72v3.72h-3.72v-1.12h-4.16v1.12h-3.72v-1.12H227.86v1.12h-3.72v-3.72h1.11V325.28h-1.11v-3.72h3.72v1.12h11.77v-1.12h1.12V309.79m-28.39,50.95v-7.07h-3v7.07h3m11.78,0v-7.07h3v7.07h-3m0,15.87v-2.24h3v2.24h-3m-11.78,0v-2.24h-3v2.24h3m54.73,26.15h-2.23V408H251.23V376.61h3.4v-2.24H238.89v2.24H249V408h-3v3h18.84v2.17h3V408h4.5v-3h-5.25v-2.23m-32.85,8.18v-3h-10.1v3h10.1m-32,0v-3h10.1v3h-10.1m-30.62,13.95v2.17h18.84v3H168.66v-5.15h3M212.36,430h-10.1v-3h10.1v3m11.78,0h10.1v-3h-10.1v3m40.72-5.15v2.17H246v3h21.82v-5.15h-3M291.44,408H281v-3h5.25V376.61H267.09v5.2h-2.23v-5.2h-3.41v-2.24h30.92v2.24h-4.61V405h3.68v3m16,0h-7.36v-3h7.36v3m12.36-3V376.61H299.19v-2.24h22.88V405h13.64V374.37H380v2.24h-23.8v7.19h-1.49v-7.19H337.94V405h4v3H316.16v-3h3.68m30.81,3h9.45v-3h-3.93V390.61h-1.49V405h-4v3m26,0v-3h-7.87v3h7.87m12.62-3h-3.94v3h3.94v3h12v-3H391.5v-19.9h7.93v-1.49H391.5v-10H394v-2.24h-7.19v2.24h2.48V405m25.56,5.95v-3h-4.89v3h4.89m18.44-12.54V408h-9.76v3h12.74V398.4h-3M414.18,363h-8.67v13.64h-4.72v-2.24h2.48V336.16h2.24v24.58h13.63v-9.18h3v12.15h14.13v12.55h-3v-9.57h-17.6v6.54h-1.49V363m0,23.61h-7.93v1.49h27v1.65h3v-4.78h-3v1.64h-17.6v-6.53h-1.49v6.53M374.88,357V340h-1.11v-3.71h3.72V340h-1.12v17h1.12v3.72h-3.72V357h1.11m14.39-114.9h-6.82v-2.23h6.82v-2.48h2.23V360.74h-2.23v-36.2H362v3.87h-3v-8.83h3v2.73h27.28V293.17h-6.82v-1.48h6.82V263h-6.82v-1.49h6.82V242.12M352.51,357.76H359v-3.5h3v6.48h-9.48v-3M359,345.58v-8.49h3v8.49h-3m-15.19,15.16v-3H332.3v3h11.53m-44.44-23.65v8.49h-3v-8.49h3m0,23.65h5.89v-3h-5.89v-3.5h-3v4.25H267.09v-8.43h-2.23v10.66h34.53m14.56,0v-3h11.53v3H314m-28.79-36.57h11.25v4.24h3v-8.83h-3v3.1H285.16v1.49m-6.82,0v-1.49H267.09V288.09h-2.23v55.17h2.23V324.17h11.25M296.41,267v-2H292v-2.66a8.64,8.64,0,0,0,5.23-4.78h2.19V267h-3m0,29.07h3v-6.2h-3V296m0,14.87h3v-6.2h-3v6.2m1.95-74.06v2.68h7.17v3h-6.13v8.17H297.2a8.62,8.62,0,0,0-3.76-4.13V241h3v-4.17h1.95m.19-25.1,0-3.4h-2.16v7.43h2.11v-2.53h21.81v26.28H314.2v3h9.11V195.14H314.2v3h6.14v13.64H298.55M185.27,352.56H189v1.11h8.62v7.07H185.27v-8.18m66,0h-3.72v1.11h-8.62v7.07h12.34v-8.18m18.1-130.79v3.35h27.08v-2.53h2.06l-.06,7.43h-2v-2.67H273.93a71.9,71.9,0,0,1-14.65,13.54l7.44,11.44A85.59,85.59,0,0,0,280,241h6.59v4.46h-3.75a8.61,8.61,0,0,0-2.68,16.8v2.66H269.33v10.89h27.08v-2h3v7.37h-3v-3.1H267.09v3.22h-2.23v-9.41h-3.41v-3h3.41V253.57l-7.43-11.43a71.68,71.68,0,0,1-20.88,9.24v-5.95H238v3.31a72,72,0,0,0,11.7-4.48v-7.11H238v3.32h-1.49v-3.32h-1.7v-2.23h16.38v-8.69h15.86v-4.46ZM14.38,291.39l.32-.32m-.32,2.41,2.41-2.41m-.89,3,3-3M18,294l3-3m-.89,3,3-3m-.88,3,3-3m-.89,3,3-3M14.38,306l.18-.18m15.69-15.69.31-.3M26.34,294l3-3m-14.94,17,2.27-2.27M28.43,294l4.21-4.21m-16.88,19,3-3m11.51-11.51,3-3M17.85,308.79l3-3m9.42-9.43,3-3M19.94,308.79l3-3m9.3-9.3,1-1M22,308.79l3-3m-.89,3,3-3m-.89,3,3-3m1.07-1.08,1.41-1.4M14.38,322.7l.4-.39m13.51-13.52,4.94-4.93M14.38,324.79l2.48-2.48m13.39-13.39,3-3M14.38,326.87,19,322.31M30.36,310.9,33.23,308M14.38,329l3-3M32.44,310.9l.79-.78M18.81,324.54,21,322.31m-6.66,8.74,3-3m3.53-3.53,2.23-2.23m-8.74,10.83,3-3M23,324.54l2.23-2.23M14.38,335.22l3-3M45,304.6l1.27-1.26m-21.2,21.2,2.23-2.23m-12.92,15,3-3M45,306.69l2.23-2.23M27.16,324.54l2.23-2.23m.86-.87,1.86-1.86M14.38,339.4l3-3M45,308.78l2.23-2.23m-18,18,4-4M14.38,341.49l3-3M45,310.87l4.18-4.18M31,324.87l2.24-2.23M15.07,342.89l2.29-2.29M49,308.92l2.23-2.23M31,327l2.24-2.23M45.75,312.2l1.48-1.48M17.16,342.89l.2-.2m33.77-33.77,2.23-2.23M31,329.05l2.24-2.23m-.44,2.52.44-.43m20-20,2.23-2.23M.25,364l.26-.26M55.3,308.92l2.23-2.23M45,319.22l.2-.2m-44.95,47,2.34-2.35m54.8-54.79,2.23-2.23M14.38,351.92l.36-.36M45,321.3l2.23-2.23m-47,49.07,4.43-4.43m54.79-54.79,2.24-2.23M14.38,354l2.45-2.45M45,323.39l2.23-2.23M31,337.4l1.24-1.24m-32,34.07,3-3m58.33-58.34,2.23-2.23m-60,60,3-3M45,325.48l3.17-3.17M14.38,356.1l3-3M31,339.49l2.24-2.24m-33,35.07,3-3m60.42-60.42,2.23-2.23m-60,60,3-3M48,324.54l2.23-2.23M14.38,358.19l3-3M45,327.57l2.23-2.24M31,341.57l2.24-2.23m-33,35.07,3-3m62.51-62.51L68,306.69m-60,60,3-3m39.18-39.17,2.23-2.23m-38,38,3-3M45,329.65l2.23-2.23M31,343.66l2.24-2.23M.48,376.26l2.75-2.74m64.59-64.6,2.24-2.23m-60,60,3-3M52.2,324.54l2.24-2.23M14.38,362.36l3-3M45,331.74l2.23-2.23M31,345.75l2.24-2.23M2.57,376.26l.66-.66m66.68-66.68,2.23-2.23m-60,60,5.95-5.95m36.2-36.2,2.23-2.23M31,347.84l2.24-2.24M45,333.83l2.23-2.23m-33,35.09,5.95-5.95m54.33-54.33,1.7-1.71M31,349.92l2.24-2.23M72,308.92l2.23-2.23M45,335.91l2.23-2.23m9.15-9.14,2.23-2.23M16.32,366.69l5.95-5.95m51.82-51.82,3.39-3.4M31,352l2.24-2.23m25.24-25.24,2.23-2.23M45,338l2.23-2.23M18.4,366.69l6-5.95m50.16-50.16,3-3M31,354.1l2.24-2.23m27.32-27.33,2.24-2.23M45,340.09l2.23-2.23m-47,49.07,2-2m74-74,1.2-1.2m-57,57,1.83-1.83m40.32-40.32,2.23-2.23M24.21,363l2.23-2.23M45,342.18,47.23,340M31,356.19,33.23,354M.25,389l3-3m61.5-61.5L67,322.31M20.83,368.44,22.32,367M45,344.26,47.23,342M26.3,363l2.23-2.23M31,358.27,33.23,356M1.63,389.72l1.6-1.59m63.59-63.59,2.23-2.23M3.28,388.07l1.49-1.49M45,346.35l2.23-2.23m-26.4,26.41L22.32,369M31,360.36l2.24-2.23M28.39,363l2.23-2.23M5.37,388.07l1.49-1.49m62-62,2.23-2.23m-50.3,50.3,1.49-1.48M45,348.44l2.23-2.23M30.47,363l2.76-2.75M7.46,388.07l1.48-1.49M74.51,321,76,319.58M22.3,373.23l0,0M71,324.54l2.23-2.23M31,364.53l2.24-2.23M59,336.52l.2-.2M45,350.53l2.23-2.24M9.54,388.07,11,386.58m62.05-62,4.4-4.41M31,366.62l2.24-2.23M59,338.61l2.29-2.29M45,352.61l2.23-2.23m-47,49.07L1.3,398.4m73.21-73.2,3-3M11.63,388.07l1.49-1.49M59.67,340,62.73,337M31,368.71l2.24-2.23M45,354.7l2.23-2.23m-47,49.07,3-3m71.28-71.29,3-3M13.72,388.07l1.49-1.49M61.76,340l1-1M20.83,381l.92-.91m38.38-38.39,1.48-1.48M31,370.8l2.24-2.23M45,356.79l2.23-2.23m-47,49.07,3-3m72.24-72.24,2-2M15.81,388.07l1.48-1.49m42.84-42.83,1.48-1.49M20.83,383.05l1.49-1.49M45,358.88l2.23-2.24M31,372.88l2.24-2.23m-33,35.07,3-3m56.9-56.9,1.48-1.49M17.89,388.07l1.49-1.49m25.85-25.84,2-2m-26.4,26.41,1.49-1.49M31,375l2.24-2.23M.25,407.8l3-3m56.9-56.9,1.48-1.49M20,388.07l2.34-2.33m9.13-9.13,2.23-2.24M.25,409.89l3-3M60.13,350l1.48-1.48M22.07,388.07l1.49-1.49m10-10,2.17-2.17M1.28,410.94l3-3m70.25-70.25.63-.63m-51,51,1.48-1.49M60.13,352.1l1.48-1.49m-26,26,.09-.09M3.37,410.94l3-3m68.16-68.16,2.72-2.72m-51,51,1.49-1.49m32.4-32.39,1.48-1.49M5.46,410.94l3-3M74.51,341.9l3-3M28.33,388.07l1.49-1.49m30.31-30.3,1.48-1.49m-2.6,2.6.37-.37M7.55,410.94l3-3m64-64,3-3m-35,35,1.6-1.6M59,359.48l2.6-2.6m-52,54.06,3-3M75,345.58l2.48-2.48M44,376.61l2.23-2.24m13.64-13.63,2.89-2.89m-51,53.09L13,409.67m64.09-64.09.4-.4M45,377.66l3.29-3.29m13.64-13.63.8-.81M37.07,387.68l1.1-1.1m10-10L49.71,375M45,379.75l2.23-2.23m-8.46,10.55,1.49-1.49M45,381.84l2.23-2.23m-6.38,8.46,1.49-1.49m32.17-32.16.16-.16M45,383.92l2.23-2.23M21.67,409.34,23.05,408m51.46-51.46,2.24-2.25M42.94,388.07l1.49-1.49m12.1-12.1.11-.11M45,386l2.23-2.23M22.16,410.94l3-3m49.38-49.38,3-3M45,388.1l2.23-2.23m9.3-9.3,2.2-2.2M24.24,410.94l2.32-2.31m48-47.95,3-3M45,390.19,47.23,388m11.35-11.35,2.24-2.24M26.33,410.94l.23-.22m50-50,3-3M45,392.27,47.23,390m13.44-13.43,2.23-2.24m-17.9,20,2.23-2.23m31.4-31.39,3-3M62.76,376.61,65,374.37M45,396.45l2.23-2.23m33.48-33.48,3-3M64.85,376.61l2.23-2.24M35.23,408.31l.34-.34M82.8,360.74,84,359.55m-39,39,2.23-2.24m19.7-19.69,2.24-2.24m-33.94,36L37.66,408M69,376.61l2.23-2.24M45,400.62l2.23-2.23M36.77,410.94l3-3m31.37-31.36,2.23-2.24M45,402.71l2.23-2.23m-8.37,10.46,3-3M73.2,376.61l2.23-2.24M45,404.8l2.23-2.23m-6.29,8.37,3-3m48.75-48.75,1.46-1.46M45,406.89l2.23-2.24m28.05-28,2.23-2.24M43,410.94,49,405m44.26-44.25,3-3M77.37,376.61l2.23-2.24M45.12,410.94l2.11-2.11m48.1-48.09,3-3M48.09,408l3-3m28.39-28.38,2.23-2.24M47.21,410.94l0,0m50.18-50.18,3-3M50.18,408l1-1m29.16-29.16,3.45-3.45m-3.45,5.53,1.49-1.48M99.5,360.74l3-3M83.63,376.61l2.23-2.24M80.33,382l1.49-1.49m19.77-19.76,2.61-2.61M85.72,376.61,88,374.37m-7.33,9.43,1.2-1.21m21.86-21.85.52-.52M87.81,376.61,90,374.37M59.85,406.65,61.51,405M89.9,376.61l2.23-2.24M60.62,408l3-3M92,376.61l2.23-2.24M62.71,408l3-3M234.85,235.83l.9-.91M94.07,376.61l2.23-2.24M111,359.66l1.89-1.9M64.79,408,67.72,405M235.61,237.15l2.23-2.23M80.33,392.43l1.49-1.49M112,360.74l3-3M96.16,376.61l2.23-2.24M66.88,408l.84-.84M236.55,238.3l3.38-3.38M80.33,394.52,81.82,393m55.29-55.29.65-.65M98.24,376.61l2.24-2.24m13.63-13.63,3-3M80.33,396.6l1.49-1.48m158-158,2.23-2.23M98.56,378.38l2.23-2.23M236.55,240.39,238,238.9M116.2,360.74l3-3m66.09-66.1,1.1-1.09m-49.26,49.26,2.74-2.74m-59.52,61.6,1.49-1.49M251.23,227.8l1.56-1.57M98.56,380.47l2.23-2.23M241.87,237.15l2.23-2.23M118.29,360.74l3-3m64-64,3.18-3.18m-51.34,51.34,3-3M80.33,400.78l1.49-1.49m169.41-169.4,3.65-3.66M98.56,382.55l2.23-2.23M244,237.15l2.23-2.23M120.37,360.74l2.18-2.17m64.27-64.28,2.61-2.6M137.11,344l3-3M76.4,406.8,78.21,405m173-173,5.74-5.74M80.33,402.87l1.49-1.49M246.05,237.15l2.23-2.23M98.56,384.64l2.23-2.23M236.55,246.65l1.22-1.22M122.46,360.74l.09-.09M190,293.17l1.48-1.48m-53.89,53.89,2.47-2.47m48.82-48.82.08-.08M77.32,408l3-3M251.23,234.06l7.83-7.83M80.33,405l1.49-1.48M248.13,237.15l2.24-2.23M98.56,386.73l2.23-2.23M236.55,248.74l1.49-1.49M139.7,345.58l.39-.38m52-52,2.61-2.6M79.4,408l3-3M249.74,237.64l11.4-11.41M98.56,388.82l2.23-2.23M236.55,250.83l2.33-2.33m-45.73,45.73,3.65-3.66M81.49,408l3-3M267.09,222.37l.6-.6M98.56,390.9l2.23-2.23m149-149,13.49-13.49M114.43,375l.66-.67M238.67,250.79,242,247.5M131.22,358.24l.48-.48m62.56-62.56,2.61-2.6M83.58,408l2.27-2.27M267.09,224.46l2.24-2.24M98.56,393l2.23-2.23m149-148.95,15.58-15.58M114.43,377.12l2.75-2.75M241.74,249.81l3.58-3.58m-114.1,114.1,2.57-2.57m60.47-60.47,1.49-1.49m-58.64,58.64.18-.18m48-48,.21-.21M85.67,408l.18-.18M249.74,243.9l19.59-19.59M98.56,395.08l2.23-2.23M245.08,248.56l4-4M114.43,379.21l2.23-2.23m77.6-77.61,1.49-1.48M117,376.61l2.23-2.24m66-66,2.3-2.29M132.9,360.74l3-3m1.24-1.24,2.27-2.26M98.56,397.17l2.23-2.23m148-148,21.84-21.83M114.43,381.3l2.23-2.23m77.6-77.61,1.49-1.49m-76.63,76.64,2.23-2.24m64.59-64.58,3.05-3.06m-54,54,5.1-5.1M98.56,399.25l2.23-2.23M253,244.78l19.67-19.66M114.43,383.39l2.23-2.24m77.6-77.6,1.49-1.49m-74.54,74.55,2.23-2.24m65.7-65.7,1.49-1.49m-53.56,53.56,3-3M188,309.79l1-1M94.53,405.37l.37-.38M257.56,242.34l17.22-17.22M98.56,401.34l2.23-2.23m93.47-93.47,1.49-1.49m-81.32,81.32,2.23-2.23m76.49-76.49.68-.68m-70.54,70.54,2.23-2.24m65.71-65.7,1.49-1.49m-53.56,53.56,2.23-2.23M94.53,407.46,97,405M274.64,227.35l2.23-2.23M98.56,403.43l2.23-2.23M258.38,243.6,260,242M114.43,387.56l2.23-2.23m76.49-76.49,2.77-2.77m-70.54,70.54,2.23-2.24m13.64-13.63,2.23-2.23M96.1,408l4.69-4.69M276.73,227.35l2.23-2.23M114.43,389.65l2.23-2.23M259.21,244.87l1.61-1.61M127.47,376.61l2.23-2.24m64.56-64.56,2.61-2.6m-53.53,53.53,2.23-2.23M98.19,408l3-3M296.41,209.75l1.41-1.41M114.43,391.74l2.23-2.24M278.81,227.35l2.24-2.23M129.56,376.61l2.23-2.24M260,246.13l1.61-1.61M145.42,360.74l2.24-2.23m48.71-48.72.5-.49m-2.61,2.6,1.49-1.49M100.28,408l3-3M296.41,211.84l2.15-2.15M114.43,393.82l2.23-2.23M280.9,227.35l2.23-2.23M131.64,376.61l2.23-2.24m127-127,1.61-1.61m-114.95,115,2.23-2.23M194.26,314l1.49-1.49M185.27,323l1.42-1.41M102.37,408l3-3M314.2,196.13l1-1M114.43,395.91l2.23-2.23M296.41,213.92l2.18-2.17M133.73,376.61l2.23-2.24m147-147,2.23-2.23M149.6,360.74l2.23-2.23M261.67,248.66l1.61-1.61m-78,78,3.5-3.5m5.49-5.49,1.49-1.48M104.45,408l3-3M314.31,198.11l3-3M114.43,398l2.23-2.23M299.18,213.24l1.49-1.49M135.82,376.61l1.49-1.5M296.66,215.77l1.87-1.88M151.69,360.74l2.23-2.23M285.08,227.35l2.23-2.23M187.14,325.28l2.6-2.6m72.75-72.75,1.62-1.61m-69.85,69.84,1.49-1.49M106.54,408l3-3M316.4,198.11l3-3M114.43,400.08l2.23-2.23M301.27,213.24l1.49-1.49m-149,149,2.23-2.23M287.16,227.35l2.24-2.23m-99.06,99.05,1.49-1.49m71.49-71.49,1.61-1.61m-70.67,70.67,1.49-1.49M108.63,408l3-3M318.48,198.11l3-3m-207,207,2.23-2.23m186.7-186.7,1.49-1.49m-149,149,2.23-2.23M289.25,227.35l2.23-2.23m-99.05,99.05,3.32-3.32m68.39-68.39,1.61-1.61M110.72,408l3-3M320.34,198.35l3-3M114.43,404.26l2.23-2.23M305.45,213.24l1.48-1.49M144.13,374.56l.18-.19m147-147,2.23-2.23M158,360.74l2.23-2.23M264.86,253.82l1.71-1.71M193.4,325.28l3.47-3.46M112.8,408l3.86-3.85M320.34,200.43l3-3M144.17,376.61l2.23-2.24M307.53,213.24l1.49-1.49m-149,149,2.23-2.23M296.41,224.36l1.78-1.77M169.41,351.37l1.29-1.29M293.43,227.35l2.23-2.23M194.26,326.51l3.83-3.83m66.77-66.77,9.49-9.49M114.89,408l3-3M320.34,202.52l3-3M146.25,376.61l2.24-2.24M309.62,213.24l1.49-1.49m-149,149,2.23-2.23M295.51,227.35l2.94-2.94m-129,129,2.23-2.23M264.86,258l17-17m-96.58,96.58.53-.53m8.46-8.46,5.92-5.92M117,408l3-3M320.34,204.61l3-3m-175,175,2.23-2.24M311.71,213.24l1.49-1.49m-149,149,2.23-2.23m130-130,2-2m-129,129,2.23-2.23M277.9,247.05l6-6m-98.67,98.66,2.62-2.61m77-77,11-11m-81.57,81.58,8-8M119.07,408l1.27-1.27m200-200,3-3M148.74,378.29l1.49-1.48M313.8,213.24l1.48-1.49M150.43,376.61l2.23-2.24M297,230l1.41-1.41M166.3,360.74l2.23-2.23M281.45,245.59,286,241M169.41,357.63l2.23-2.23m93.22-93.23,9.51-9.51m-88.11,88.12L189,338m5.27-5.27,10.1-10.09m-55.62,57.7,1.49-1.49M320.34,208.78l3-3M152.52,376.61l2.23-2.24M315.88,213.24l1.49-1.49m-149,149,3.26-3.26m112-112,3-3m-98.28,98.28.65-.65m75.87-75.87,9.43-9.43m-84.83,84.83,1.49-1.48m3.31-3.32,12.18-12.18m-57.7,59.79,1.49-1.49M320.34,210.87l3-3M154.6,376.61l2.24-2.24M318,213.24l1.49-1.49m-149,149,1.17-1.17m114.1-114.1.88-.88m-95.07,95.07,1.48-1.48m71.83-71.83,9.77-9.77m-81.48,81.48,1-1m67.3-67.3.87-.87M194.26,337l14.27-14.27m31.1-31.1,1-1m-32,32,1-1m-60.91,63,1.49-1.49M320.06,213.24l3.25-3.26M156.69,376.61l2.23-2.24M296.41,236.88l0,0M193.15,340.15l18.58-18.59m53.13-53.13,10.37-10.36m-35.6,35.59,3.1-3.09m18.72-18.73,3-2.95M129,406.37l1.37-1.38m190-189.94,3-3M148.74,386.64l1.49-1.48M296.41,239l1.95-1.95M158.78,376.61l2.23-2.24M293.44,242l.94-.94m-99.77,99.77L212.36,323m58.1-58.09,5.59-5.59m-35.3,35.29,2.95-2.94m19.82-19.83,5.81-5.8M129.5,408l3-3M320.34,217.13l3-3M148.74,388.73l1.49-1.49M293.44,244l4.91-4.91M160.87,376.61l2.23-2.24M272.54,264.93l4.5-4.5m-80.35,80.35.18-.17m68-68,4.47-4.46m-71.52,71.51,13.44-13.43m33.05-33.06,1.49-1.48m-33.6,33.59.17-.17m30.82-30.82.17-.17m-2.6,2.6,1.49-1.49M131.59,408l3-3M320.34,219.22l3-3M148.74,390.82l1.49-1.49M293.44,246.12l6.6-6.6M163,376.61l2.24-2.24M274.63,264.93l3.59-3.59m-93,93,1.73-1.73m77.86-77.86,4.47-4.47M199.9,339.66l11.35-11.35m35.14-35.14,2.6-2.6m-8.24,8.24,1.49-1.49M133.68,408l2.7-2.7m184-184,3-3M148.74,392.91l1.49-1.49M294.45,247.19l7.68-7.67M165,376.61l2.23-2.24M276.72,264.93l2.88-2.88m-94.33,94.32,3.72-3.72m75.87-75.87,4.47-4.46M202,339.66l9.27-9.26m36.26-36.26,3.57-3.57M240.75,300.9l1.49-1.49M135.76,408l.62-.62m184-184,3-3M148.74,395l1.49-1.48m151-151,3-3M167.13,376.61l2.23-2.24m126.2-126.19,3.83-3.83M185.27,358.46l4.79-4.79m88.75-88.74,1.38-1.39m-76.12,76.12,7.18-7.17m53.61-53.62,4.47-4.46M240.75,303l1.49-1.48m7.2-7.21,1.79-1.78M148.74,397.08l1.49-1.49M320.34,225.48l3-3M169.22,376.61l2.23-2.24M303.33,242.5l2.19-2.2M185.27,360.55l6.88-6.88M296.48,249.34l2.91-2.91m-93.23,93.23,5.09-5.08m56.52-56.53,2.23-2.23m-45.86,45.86.12-.12m40.6-40.6,2.23-2.23m-27.46,27.46.12-.12m1-1,1.49-1.49m-93.5,95.59,1.49-1.49M320.34,227.57l3-3M169.41,378.5l4.12-4.13M305.41,242.5l.11-.12M187.17,360.74l7.07-7.07m103-103,2.16-2.15m-91.14,91.14,3-3m58.61-58.61,2.23-2.23m-47.95,47.95,2.21-2.21m40.29-40.29.45-.45m-27.46,27.45,2.61-2.6m-93.5,95.59,1.49-1.49M320.34,229.66l3-3M169.41,380.59l2.23-2.23M299.32,250.67l.07-.06m-126,126,1.66-1.66m96.9-96.9,2.23-2.23m-84.92,84.92,7.07-7.07m43.88-43.88,3.14-3.15m-34.13,34.14,3.14-3.15m12.35-12.35,3.15-3.14M145.06,407l2-2M320.34,231.75l3-3M148.74,403.34l1.49-1.48M274,278.05l2.24-2.23m-106,106,1.37-1.36m71.77-71.78,1.49-1.49m-53.55,53.56,6.26-6.27m44.69-44.68,1-1.06m-32,32,1.05-1.06m28.39-28.39,1.49-1.48m-17,17,4.15-4.15M146.2,408l4-4M320.34,233.83l3-3M193.43,360.74l4.18-4.18M314.2,240l.45-.45m-89.4,89.4,6.24-6.24m44.63-44.63,2.23-2.23m-37.6,37.6,1.49-1.49m22.62-22.62,1.22-1.22M245.5,308.67l1.49-1.49m.52-.52.59-.59M148.29,408l3-3M320.34,235.92l3-3M181.86,374.39l0,0M314.2,242.06l2.54-2.54M195.52,360.74l2.09-2.09M292,264.29l6.8-6.8M225.25,331l8.33-8.32m44.63-44.63,2.23-2.23m-39.69,39.69,1.49-1.49m22.62-22.62,2.23-2.24m-19.58,19.59,2.68-2.68M150.38,408l3-3m167-167,3-3M181.86,376.48l2.11-2.11M315.85,242.5l3-3M197.61,360.74h0m95.81-95.81,6-6m-74.14,74.13,10.42-10.41m44.63-44.63,2.23-2.23M240.75,317.6l1.49-1.49m22.62-22.63,2.23-2.23m-18.53,18.54,2.67-2.67M152.46,408l3-3M317.94,242.5l5.37-5.38M183.83,376.61l2.23-2.24M295.51,264.93l3.88-3.88m-74.14,74.13,12.5-12.5m44.63-44.63,2.23-2.23m-43.86,43.86,1.49-1.48m22.62-22.63,2.23-2.23m-16.44,16.45.58-.58M154.55,408l.93-.93M320,242.5l3.28-3.29m-138,138,2.88-2.88M296.41,266.11l3-3m-75.25,75.25,18.1-18.1m42.23-42.23,2.23-2.23m-21.84,21.84,2.23-2.23m-81.82,83.9,2.24-2.23m134.6-134.6,1.2-1.21M188,376.61l2.23-2.24M297.64,267l1.75-1.74m-90,90,1.55-1.55m75.62-75.62,2.23-2.23m-64.65,64.65L243,321.56m21.82-21.81,2.23-2.24m-81.82,83.91,2.24-2.23M288.65,278.05l2.23-2.23M190.09,376.61l2.23-2.24m72.54-72.54,2.23-2.23m-57.7,57.71,3-3m13.56-13.55,18.1-18.1m-58.75,60.83,2.24-2.23M290.73,278.05l2.23-2.23M192.18,376.61l2.23-2.24m70.45-70.45,2.23-2.23m-57.7,57.71,3-3m32.26-32.25,1.48-1.49m-17,17,13.12-13.12m-78.08,80.17,1.72-1.72M296.41,274.46l.68-.68M185.27,385.6l2.24-2.24M292.82,278.05l2.23-2.23M194.26,376.61l2.24-2.24M264.86,306l2.23-2.23m-57,57,2.23-2.23m34.34-34.34,2.61-2.61m-18.1,18.1,11-11M165,408l3-3m127-126.94,4.26-4.27M169.41,403.55l.78-.79m94.67-94.66,2.23-2.24m-81.82,81.82,2.24-2.23m60.17-60.17,3.55-3.55m-54.88,54.88,1.26-1.26m35.68-35.69,9-8.94m-30,30,.14-.14M167.08,408l4.56-4.56M296.41,278.63l3-3M185.27,389.77l2.24-2.23m77.35-77.36,2.23-2.23m-31.71,31.71,6.86-6.85m7.52-7.53,1.47-1.46m-82.57,84.65,3-3M296.41,280.72l3-3M185.27,391.86l2.24-2.23m77.35-77.36,2.23-2.23m-29.62,29.62,4.77-4.77m-73.58,75.67,3-3M298.07,281.15l1.32-1.32M185.27,394l2.24-2.24m77.35-77.35,2.23-2.23m-42.95,42.95,1.41-1.41m14-14,2.68-2.68m-73.58,75.66,4.68-4.67m91.52-91.53,2.23-2.23M185.27,396l2.24-2.23m53-53,2.82-2.83m-19.21,19.22,3-3m-56.83,58.92,1.36-1.35m93.22-93.23,2.23-2.23m-94.64,94.64,3-3m68.31-68.31,1.49-1.48m-59.95,59.94,2.24-2.23m55.11-55.11.73-.74m-19.21,19.22,3-3m-52.57,54.66,3-3m87.35-87.35,2.23-2.23m-81.82,81.82,2.24-2.23m60-60,.91-.92m-39,39,1.72-1.73m34.71-34.71,1.49-1.48m-22.57,22.56,2.37-2.37m-50.49,52.57,3-3M296.41,291.16l1.33-1.33M185.27,402.3l2.24-2.24m77.35-77.35,2.23-2.23M211,376.61l1.4-1.4m35.15-35.15,3-3m-23.68,23.68.28-.28m-48.4,50.48,3-3M296.41,293.24l3-3M185.27,404.38l2.24-2.23m77.35-77.36,2.23-2.23m-18.21,18.22,2.35-2.35M180.8,410.94l3-3M296.41,295.33l3-3M185.27,406.47l2.24-2.23m80.07-80.07,1.49-1.49M251,340.78l.26-.26m13.63-13.64,2.23-2.23M168.66,425.17l.28-.28M297.81,296l1.58-1.59m-116.5,116.5,4.62-4.61m82.15-82.16,1.49-1.49m-32.26,32.26,1.27-1.27m24.7-24.7,2.23-2.23M168.66,427.26l2.37-2.37M271.75,324.17l1.49-1.49M185,410.94l3-3m76.91-76.91,2.23-2.23M238.89,357l3.36-3.36m-73.59,75.67,3-3m102.2-102.2,1.49-1.49m-88.27,88.26,3-3m74.82-74.83,2.23-2.23m-28.2,28.21,5.44-5.45M170.06,430l3-3m102.9-102.89,1.48-1.49m-88.26,88.26,1.33-1.33m74.38-74.38,2.23-2.23m-42.95,43,1.58-1.59m21.79-21.78,0,0m-8.18,8.18,7.06-7.07M172.14,430l3-3M296.41,305.77l1.07-1.07m-71.9,71.91,1.53-1.54m50.9-50.9.33-.33m-36.9,36.9,8.19-8.18m15.23-15.24,2.23-2.23m-92.86,95,3-3m119.2-119.2,3-3m-55.86,55.86,7.7-7.7m13.63-13.63,2.23-2.24M176.32,430l3-3M296.41,309.94l3-3m-53.77,53.77,5.61-5.61m13.63-13.64,2.23-2.23M178.41,430l3-3M297.54,310.9l1.85-1.84m-51.68,51.68,3.52-3.52m33.93-33.94.6-.6m-20.57,20.58,1.9-1.91M180.49,430l3-3M286.36,324.17l1.49-1.49m-85.59,85.59.3-.3m47.23-47.23,1.44-1.44M182.58,430l3-3M288.45,324.17l1.49-1.49m-87.68,87.68,2.39-2.39m-20,22.07,3-3m102.9-102.89,1.49-1.49m-88.27,88.26,3-3m32.15-32.16,1.44-1.44M186.76,430l3-3M296.41,320.38l.8-.8m-91.36,91.36,3-3m83.81-83.8,1.48-1.49m-53.92,53.93,2.23-2.24m22.44-22.44,1.86-1.85m-77.88,80,1.64-1.64M296.41,322.47l2.89-2.89m-91.36,91.36,3-3m83.8-83.8,1.49-1.49m-53.93,53.93,2.24-2.24M264.86,354l2.23-2.23M210,410.94l2.34-2.33m84.05-84.05,3-3m-55,55,2.23-2.24m18.27-18.26,2.23-2.24m-55,57.07.25-.25M382.45,240.61l.71-.72M246.45,376.61l2.23-2.24m47.73-47.73,3-3m-34.53,34.52,2.23-2.23m-18.55,20.65,2.23-2.24M383,242.12l2.23-2.23M264.86,360.28l2.23-2.23m29.64-29.64,2.66-2.66M249,378.24l3.87-3.87M389.27,238l.55-.55M266.49,360.74l2.23-2.23M385.11,242.12l2.23-2.23m-88.52,88.52.57-.57M249,380.32l2.24-2.23m136-136,4.31-4.3M252.71,376.61l1.92-1.93m13.95-13.94,2.23-2.23m-68.55,70.64,2.08-2.09M389.27,242.14l2.23-2.23M249,382.41l2.24-2.23m19.44-19.44,2.23-2.23M203.46,430l3-3M389.27,244.23,391.5,242M224.14,409.35l1.38-1.38m47.23-47.23,2.24-2.23m-26,26,2.24-2.23M205.54,430l3-3M389.27,246.31l2.23-2.23M224.63,410.94l3-3m68.8-68.8,2.08-2.08M249,386.59l2.24-2.24m23.61-23.61,2.23-2.23M207.63,430l3-3M389.27,248.4l2.23-2.23M226.72,410.94l3-3m66.71-66.72,3-3M249,388.67l2.24-2.23m25.7-25.7,2.23-2.23m-17.71,17.7,1.84-1.84M209.72,430l2.64-2.65m176.91-176.9,2.23-2.23M228.81,410.94l3-3m64.63-64.63,3-3M249,390.76l2.24-2.23M279,360.74l2.23-2.23m-18.1,18.1,2.23-2.24M211.81,430l.55-.56m176.91-176.9,2.23-2.24M230.9,410.94l3-3m62.54-62.54,3-3M249,392.85l2.24-2.23m29.87-29.88,2.24-2.23M264.86,377l2.61-2.61M233,410.94l1.26-1.25m155-155,2.23-2.23M249,394.93l2.24-2.23m47.12-47.12,1-1m-34.53,34.53,2.23-2.23m16.1-16.1,2.23-2.23m-18.1,18.1,2.23-2.24M249,397l2.24-2.23m138-138,2.23-2.23M264.86,381.15l2.23-2.23M383,263l1.49-1.49M269.41,376.61l2.23-2.24m13.64-13.63,2.23-2.23M249,399.11l2.24-2.23m138-138,2.23-2.23M266.29,381.81l.8-.8m118-118,1.49-1.49M271.5,376.61l2.23-2.24m13.64-13.63,2.23-2.23M249,401.2l2.24-2.23m138-138,2.23-2.24M273.59,376.61l2.23-2.24M387.22,263l1.49-1.49m-99.26,99.26,2.23-2.23m-67.54,69.63,1.08-1.08m164-164,2.23-2.23M249,403.28l2.24-2.23m45.18-45.18,1.61-1.61m-22.35,22.35,2.23-2.24m13.64-13.63,2.23-2.23M224.33,430l3-3m162-162,2.23-2.23M246,408.35l.38-.38m50-50,3-3M249,405.37l2.24-2.23m42.4-42.4,2.23-2.23m-18.1,18.1,2.23-2.24M226.42,430l3-3M389.27,267.19,391.5,265M246,410.43l2.46-2.46m47.24-47.23,3.67-3.67M249,407.46l2.24-2.23m28.62-28.62,2.23-2.24M228.5,430l3-3M389.27,269.28,391.5,267M247.6,410.94l3.63-3.63m46.57-46.57,3-3m-18.84,18.85,2.23-2.24M230.59,430l3-3m155.7-155.7,2.23-2.23M249.68,410.94l3-3m47.23-47.23,3-3M284,376.61l2.23-2.24M232.68,430l1.56-1.57m155-155,2.23-2.23M251.77,410.94l3-3M302,360.74l3-3m-18.84,18.85,2.23-2.24m-34.48,36.57,3-3M389.27,275.54l2.23-2.23M286.27,378.53l1.49-1.49m16.31-16.3,1.21-1.21M288.2,376.61l2.23-2.24M256,410.94l3-3M389.27,277.62l2.23-2.23M286.27,380.62l1.49-1.49m2.52-2.52,2.09-2.09M258,410.94l3-3M389.27,279.71l2.23-2.23M264.86,404.12l1.35-1.36m20.06-20.05,1.49-1.49m-27.64,29.72,3-3M389.27,281.8l2.23-2.23M264.86,406.2l2.23-2.23m19.18-19.18,1.49-1.48M246,427.13l.07-.07M389.27,283.89l2.23-2.23M262.21,410.94l6-5.95M314,359.2l1.44-1.44m-29.12,29.12,1.49-1.49M246,429.22l2.16-2.16M389.27,286l2.23-2.23M264.29,410.94l6-5.95m112.2-112.2,1.1-1.1M286.27,389l1.49-1.49m26.74-26.74,3-3m-18.29,18.29,1.68-1.68M247.29,430l3-3m139-139,2.23-2.23M264.86,412.46l3-3M384.15,293.17l1.49-1.48M269.36,408l3-3m44.26-44.25,3-3m-33.29,33.3,1.49-1.49m13-13,2.23-2.24M249.38,430l3-3M389.27,290.15l2.23-2.23M266.3,413.11l1.54-1.53m118.4-118.41,1.49-1.48M271.44,408l.9-.9M359,320.4l.81-.82m-73.56,73.56,1.49-1.48m30.92-30.92,3-3m-18.84,18.85,2.23-2.24M251.47,430l3-3M388.33,293.17,391.5,290M286.27,395.23l1.49-1.49M359,322.48l2.9-2.9m-57,57,2.23-2.24m13.63-13.63,3-3M253.55,430l3-3M389.27,294.32l2.23-2.23M286.27,397.32l1.49-1.49M359,324.57l3-3m-55,55,2.24-2.24m13.63-13.63,2.63-2.63M255.64,430l3-3M389.27,296.41l2.23-2.23M286.27,399.4l1.49-1.48M359,326.66l4.35-4.35m-54.3,54.3,2.23-2.24m13.64-13.63.54-.55M257.73,430l3-3M389.27,298.5l2.23-2.23M281,406.74l1.75-1.75m80.46-80.45,2.23-2.23m-79.19,79.18,1.49-1.49m71.59-71.59,2.64-2.64m-50.83,50.84,2.23-2.24M259.82,430l3-3M389.27,300.59l2.23-2.24M264.86,425l.1-.1M365.31,324.54l2.23-2.23M281.88,408l3-3m76.58-76.58.55-.55m-75.72,75.72,1.49-1.49m25.49-25.48,2.23-2.24M261.9,430l5.15-5.15M389.27,302.67l2.23-2.23M284,408l3.79-3.79m79.64-79.64,2.23-2.23m-54.3,54.3,2.23-2.24m14.74-14.73,1.88-1.88M264,430l3.85-3.85M389.27,304.76l2.23-2.23M286.06,408l3-3m80.46-80.45,2.23-2.23m-54.3,54.3,2.23-2.24m13.64-13.63,3-3M266.08,430l1.76-1.76M389.27,306.85l2.23-2.23M288.14,408l3-3m80.46-80.45,2.23-2.23m-54.3,54.3,2.23-2.24M359,337.1h0m-23.64,23.65,3-3M290.23,408l1.21-1.21m97.83-97.82,2.23-2.24m-71.66,71.66,2.23-2.23m51.59-51.59,2.23-2.23m-38.43,38.43,3-3M359,339.18l2.09-2.09m-41.27,43.36,2.23-2.24M389.27,311l2.23-2.23m-51.95,51.95,3-3m33.22-33.22,2.23-2.23m-19,19,3-3m-42.15,44.23,2.23-2.23m67.2-67.19,2.23-2.23m-49.86,49.86,2.19-2.19m34-34,2.23-2.23M359,343.36l3-3m-42.15,44.24,2.23-2.23m67.2-67.19L391.5,313m-47.77,47.77.1-.11m36.09-36.09,2.24-2.23M359,345.45l3-3m-61.87,64,1.44-1.44m87.71-87.7,2.23-2.24m-71.66,71.66,2.23-2.23M382,324.54l2.23-2.23M361,345.58l1-1M300.67,408l3-3m85.63-85.62,2.23-2.23M319.84,388.8l2.23-2.24m62-62,2.23-2.23M302.76,408l3-3m83.54-83.53,2.23-2.23m-71.66,71.65,2.23-2.23m64.12-64.11,2.23-2.23M335.71,375l.64-.64M373.77,337l.64-.64m-21.9,21.9.45-.46M304.84,408l2.64-2.64m80.79-80.79,3.23-3.22M319.84,393l2.23-2.23m51.7-51.7,2.73-2.72M335.71,377.1l2.73-2.73m14.07-14.07,2.54-2.54M306.93,408l.55-.55m81.79-81.79,2.23-2.23m-71.66,71.66,2.23-2.23m52.8-52.8,2.62-2.62m-41.78,41.78,2.23-2.23M359,355.88l1.62-1.62m-22.35,22.35,2.24-2.24m13.63-13.63,3-3m-37.3,39.38,2.23-2.23m67.2-67.19,2.23-2.23m-55.79,55.79,2.23-2.23m39-39,.54-.53m-37.11,37.11,2.23-2.24m32.27-32.27,1.49-1.49m-20.12,20.13L362,355m-42.15,44.23,2.23-2.23m67.2-67.19,2.23-2.23m-55.79,55.78,2.23-2.23m36.94-36.94,1.49-1.49m-33.9,33.91,2.23-2.24m13.64-13.63,3.65-3.66M316.16,405h0m73.1-73.09,2.23-2.23m-71.66,71.65,2.23-2.23m52.81-52.81,1.49-1.49m-40.66,40.66,2.23-2.23m22.48-22.48,1.57-1.57m-17.43,17.44,2.23-2.24m-30.63,32.72,2.1-2.1m71-71,2.23-2.23m-71.66,71.66,2.23-2.23m52.81-52.82,1.49-1.48m-40.66,40.66,2.23-2.23m8.7-8.7,2.24-2.24M317.37,408l4.7-4.71m67.2-67.19,2.23-2.23m-55.79,55.79,2.23-2.24m36.94-36.94,1.49-1.49m-27.64,27.65,2.23-2.24M319.45,408l3-3m66.84-66.83,2.23-2.23m-55.79,55.78,2.23-2.23m36.94-36.94,1.49-1.49m-25.55,25.56,2.23-2.24M321.54,408l3-3m64.75-64.74L391.5,338M335.71,393.8l2.23-2.23m36.94-36.94,1.49-1.49m-23.46,23.47,2.23-2.24M323.63,408l3-3m62.67-62.66,2.23-2.23m-55.79,55.79,2.23-2.23m36.94-37,1.49-1.48m-21.69,21.69,2.55-2.55m16.54-16.54.81-.81m-48.86,51,3-3m60.58-60.57,2.23-2.23M335.71,398l2.23-2.24m35.83-35.82,2.9-2.9m-22,22,1.49-1.49m.91-.91,2.23-2.24M327.8,408l3-3m58.49-58.48,2.23-2.23m-55.79,55.78,2.23-2.23M375,360.74l2.45-2.45M354.68,381.1l1.49-1.49m3-3,2.23-2.24M329.89,408l3-3m56.4-56.39,2.23-2.24m-55.79,55.79,2.23-2.23m39.18-39.18.37-.37m-22.81,22.81,1.49-1.48m5.09-5.09,2.23-2.24M332,408l3-3m68.32-68.32.52-.51m-68.08,68.08,2.23-2.23m51.33-51.33,2.23-2.23M356.15,383.8l0,0m7.17-7.17,2.23-2.24M334.07,408l3.87-3.88m65.33-65.33,2.24-2.23m-40.08,40.08,2.23-2.24m21.61-21.6,2.23-2.23M336.15,408l3-3m64.14-64.14,2.24-2.23m-38,38,2.23-2.24m19.52-19.51,2.23-2.23M338.24,408l3-3m62-62.05,2.24-2.23m-50.83,50.82.92-.92M389.27,357l2.23-2.24m-21.89,21.9,2.23-2.24M340.33,408l1.64-1.64M403.27,345l2.24-2.23m-50.83,50.83,1.49-1.49m33.1-33.1,2.23-2.23m-19.81,19.81,2.23-2.24m-19.24,21.34,1.49-1.49m47.1-47.11,2.24-2.23m-31.73,31.73,2.23-2.24m13.64-13.63,1.85-1.85M354.68,397.8l1.49-1.49m47.1-47.11,2.24-2.23m-29.64,29.64,2.23-2.24m-23.42,25.51,1.49-1.49m47.1-47.1,2.24-2.23M378,376.61l2-2M350.65,406l1-1m51.62-51.62,2.24-2.23M354.68,402l1.49-1.49m-5.4,7.49,3-3m49.53-49.53,2.24-2.23m-50.83,50.83,1.49-1.49m-3.32,5.4,3.32-3.31m47.1-47.11,2.24-2.23M354.94,408l3-3m45.35-45.35,2.24-2.24m-18.72,18.72,1.75-1.75M357,408l3-3m43.27-43.27,2.24-2.23m-17.12,17.12,2.23-2.24M359.12,408l1-1m43.17-43.17,3.08-3.07m-17.08,17.08,3.44-3.45m-3.44,5.54,2.23-2.23M406.2,363l2.23-2.23m-15.86,15.87L394,375.2m9.29-9.3,2.24-2.23M389.27,382l2.23-2.23m27.64-27.64.56-.56M403.27,368l2.24-2.24m2.78-2.78,2.23-2.23m-21.25,23.34,2.23-2.23m27.64-27.64,2.64-2.65m-18.51,18.51,2.24-2.23m4.87-4.87,2.23-2.23m-43.83,45.91,1.66-1.66m48.7-48.7,3-3m-32.85,32.85,2.23-2.23m21-21,2.23-2.23m-13.91,13.9.27-.27m2.21-2.21,2.24-2.23m-36,38,3-3m46.61-46.61,3-3m-32.85,32.86L391.5,386m22.68-22.69,2.6-2.6m-15.86,15.87,2.23-2.24m.12-.12,2.24-2.23m-33.87,36,3-3m44.53-44.52,3-3m-32.85,32.85,2.23-2.23m22.68-22.68,4.69-4.69m-27.33,27.33,1.48-1.49m10-10,2.51-2.51M373.73,408l2.92-2.92m37.53-37.54,7.94-7.93m-32.85,32.85,2.23-2.23m13.59-13.59.42-.42m-11.89,11.88,1.49-1.49M375.81,408l.84-.84m40.45-40.44,5-5m-32.85,32.85,2.23-2.23m22.68-22.69,1.49-1.49m-20,20,1.49-1.49m-7.93,10,2.23-2.24m27.68-27.68,3-3M397.8,388.07l1.49-1.49m14.89-14.89,1.49-1.49m-26.4,28.49,2.23-2.23m29.77-29.77,3-3m-9.52,9.52.94-.94m-26.4,28.49,2.23-2.23m31.86-31.86,3-3m-41,43.09,1.81-1.81m38.31-38.3,3-3m-39.15,39.16,2.23-2.23M386.25,408l3-3m38.3-38.3,3-3M389.27,405l2.23-2.24M406.25,388l1.39-1.39M388.34,408l3.16-3.16m38.12-38.12,3-3m-24.36,24.36,1.48-1.49m4.46-4.45,1.49-1.49m-26.4,28.49,2.23-2.23m40.21-40.21,3-3m-24.36,24.36,1.49-1.49m2.37-2.37,1.49-1.49m-26.13,28.22,3-3m40.76-40.76,3-3m-23.84,23.84,1.49-1.49m.28-.28,1.49-1.49m-24,26.13,3-3m38.67-38.67,3-3M414.5,388.07l1.49-1.49m-22.28,24.36,3-3m36.58-36.59,3-3m-19.66,19.66,1.48-1.49M395.8,410.94l3-3m34.49-34.5,3-3m-17.58,17.57,1.49-1.49m-22.27,24.36,3-3m32.41-32.41,3-3m-15.49,15.49,1.49-1.49M400,410.94l1.29-1.29m33.39-33.39,1.59-1.59m-13.4,13.4,1.48-1.49m.6,1.49,1.49-1.49m.6,1.49,1.49-1.49m.6,1.49,1.49-1.49m-20.66,22.75L411.3,408m22-22,1.06-1.06m-3.13,3.13,1.48-1.49m-22.27,24.36,3-3m19.88-19.89,3-3M412.5,410.94l2.33-2.32m18.89-18.9,2.53-2.53m-21.66,23.75.24-.24m21-21,.44-.44m-12.74,19,.31-.32m9.45-9.45.12-.12m-9.88,12,2.4-2.41m7.36-7.36,2.21-2.21M425,410.94l3-3m5.27-5.28,3-3m-9.14,11.22,3-3m3.18-3.19,3-3m-7.05,9.13,3-3m1.1-1.1,3-3m-5,7.05,5-5m-2.88,5,2.88-2.87m-.79,2.87.79-.78m-30-170.89h-3v10.47h3V239.27m0,26.76v-7.61h-3V266h3m-3,8.68h3v6.44h-3v-6.44M414.18,363h-8.67v13.64h-4.72v-2.24h2.48V336.16h2.24v24.58h13.63v-9.18h3v12.15h14.13v12.55h-3v-9.57h-17.6v6.54h-1.49V363M354,142l.85-2.85L391.5,150v75.89h11.77v-4.12h3v8.83h-3v-2.48H391.5v2.48h-2.23v-2.48h-6.82v-2.23h6.82V206.42h-6.82v-1.49h6.82v-52.5L362,144.31v6.2h-3v-7.08L354,142m49.23,169h3v-6.2h-3v6.2m0-14.87h3v-6.2h-3V296m3,26.28h15.87v20.58h-3V324.54H405.51v4.8h-2.24v-9.76h3ZM354.16,141.57l2.07-2.08m-.78,2.88,2.39-2.4m-.79,2.87,2.4-2.39m-.79,2.87,2.39-2.39m-2,4.13,3.64-3.65M359,147.14l5.25-5.25M359,149.23l3-3m1.5-1.5,2.39-2.39m-6.05,8.14,2.16-2.17m3.11-3.1,2.39-2.39m-5.58,7.66.08-.08m4.72-4.71,2.39-2.39m-.79,2.87,2.4-2.4m-.79,2.88,2.39-2.4m-.78,2.87,2.39-2.39m-.78,2.87,2.39-2.39m-.78,2.87,2.39-2.39m-.78,2.87,2.39-2.39m-.79,2.87,2.4-2.39m-.79,2.87,2.4-2.39m-.79,2.87,2.39-2.39m-.78,2.87,2.39-2.4M384.4,151l2.39-2.4m-.78,2.87,2.39-2.39m-.78,2.87,2.39-2.39m-.79,2.87,2.28-2.27m-2.23,4.32,2.23-2.23m-2.23,4.32,2.23-2.24m-2.23,4.32,2.23-2.23m-2.23,4.32,2.23-2.23m-2.23,4.32,2.23-2.23m-2.23,4.32,2.23-2.24M389.27,167l2.23-2.23m-2.23,4.32,2.23-2.23m-2.23,4.32,2.23-2.23m-2.23,4.32L391.5,171m-2.23,4.32,2.23-2.23m-2.23,4.32,2.23-2.23m-2.23,4.32,2.23-2.23m-2.23,4.31,2.23-2.23m-2.23,4.32,2.23-2.23m-2.23,4.32,2.23-2.23m-2.23,4.32,2.23-2.23M389.27,190l2.23-2.23M389.27,192l2.23-2.23m-2.23,4.32,2.23-2.23m-2.23,4.32L391.5,194m-9.05,11.13.19-.19m6.63-6.63,2.23-2.23m-8.26,10.35,1.48-1.49m4.55-4.54,2.23-2.23m-6.18,8.26,1.49-1.49m2.46-2.45,2.23-2.23m-4.09,6.17,1.49-1.49m.37-.36,2.23-2.24m-2.23,4.32,2.23-2.23m-2.23,4.32,2.23-2.23m-2.23,4.32,2.23-2.23m-2.23,4.32,2.23-2.24M389.27,215l2.23-2.23m-2.23,4.32,2.23-2.23M382.45,226l.11-.12m6.71-6.7L391.5,217m-9.05,11.13,2.2-2.2m4.62-4.61L391.5,219m-7,9.08,2.23-2.23m2.54-2.53,2.23-2.23m-4.91,7,2.23-2.23m.45-.44,2.23-2.23m-2.82,4.9,2.82-2.81m-2.23,4.31,3.73-3.73m-2.63,4.71,1.13-1.12m1.35-1.36,2.23-2.23m-.14,2.23,2.23-2.23m-.14,2.23,2.23-2.23m4-4,.12-.11m-4.28,6.35,2.24-2.23m1.92-1.92,2.2-2.2m-4.27,6.35,5.05-5m-3,5.06,3-3m-3,5.06,3-3M405,230.59l1.26-1.26m-3,11.32,1.39-1.38m-1.39,3.47,3-3m-3,5.06,3-3m-3,5.07,3-3m-3,5.06,3-3m-1.63,3.71,1.63-1.62m-3,11.32,1-1m-1,3.11,3-3m-3,5.07,3-3m-3,5.06,3-3M405,266l1.22-1.21m-3,11.32,1.43-1.43m-1.43,3.52,3-3m-3,5.07,3-3m-1.72,3.81,1.72-1.72m-3,11.32.93-.92m-.93,3,3-3m-3,5.07,3-3m-2,4.08,2-2m-3,11.32.66-.66m-.66,2.75L406,304.7m-2.75,4.84,3-3M404,310.9l2.25-2.25m-.16,2.25.16-.16m-3,9.24.4-.4m-.4,2.48,2.49-2.48m-2.49,4.57,3-3m-3,5.06,3.93-3.93m-3.93,6,2.24-2.24m1.55-1.55,2.23-2.23m-5,7,1.17-1.16m3.64-3.64,2.23-2.23m-.14,2.23,2.23-2.23m-.15,2.23,2.23-2.23m-12.28,14.36.52-.51m11.62-11.62,2.23-2.23m-14.37,16.45,2.24-2.23m12-12,2.23-2.23m-16.46,18.54,2.24-2.23M419.14,325l2.68-2.67m-18.55,20.63,2.24-2.23m13.63-13.64,3-3M403.27,345l2.24-2.23m13.63-13.63,3-3m-18.85,20.93,2.24-2.23m13.63-13.64,3-3M403.27,349.2l2.24-2.23m13.63-13.64,3-3m-18.85,20.93,2.24-2.23m13.63-13.64,3-3m-18.85,20.93,2.24-2.23m13.63-13.63,3-3m-18.85,20.93,2.24-2.23m13.63-13.64,3-3m-18.85,20.93,2.24-2.23m13.63-13.64,3-3m-18.85,20.93,2.24-2.24M420,342.89l2.1-2.1m-18.85,20.93,2.24-2.23m16.6-16.6h0m-18.85,20.93,3.08-3.07m-3.08,5.16,2.24-2.23m.69-.7,2.23-2.23M403.27,368l2.24-2.24m13.63-13.63.56-.56M408.29,363l2.23-2.23m-7.25,9.33,2.24-2.23m13.63-13.63,2.64-2.65M410.38,363l2.23-2.23m-11.82,13.9.27-.27m18.08-18.08,3-3m-18.85,18.84,2.24-2.23m7-7,2.23-2.23m-13.78,15.87,2.23-2.24m16-16,3-3m-18.85,18.85,2.24-2.23m8.67-8.68,2.6-2.6M403,376.61l2.51-2.51m13.63-13.63,3-3m-7.94,7.94,4.69-4.69m-13.78,15.87.42-.42m8.67-8.68,7.94-7.93m-7.94,10,1.49-1.49m1.43-1.42,5-5m-7.94,10,1.49-1.49m3.51-3.51,3-3m-7.43,9.52.94-.94m5.6-5.6,3-3m-.89,3,3-3m-.88,3,3-3m-.89,3,3-3m-.89,3,3-3m-.89,3,3-3m-1.41,3.5,3-3m-3,5.07,3-3m-3,5.06,3-3m-3,5.06,3-3m-3,5.06,3-3m-1.59,3.68,1.59-1.59M362,274.71v6.44h-3v-6.44h3m13.64,17v1.48H362V296h-3v-6.2h3v1.86h13.64M359,310.9v-6.2h3v6.2h-3M362,266V263h13.64v-1.49H362v-3.06h-3V266h3m0-28.62v2.48h13.64v2.23H362v7.62h-3V242.5h-6.14v-3h6.88v-2.11H362M64.28,291.69v1.48H74.51V296h3v-6.2h-3v1.86Zm.5,1.48,1.49-1.48m.6,1.48,1.49-1.48m.6,1.48,1.48-1.48m.6,1.48,1.49-1.48m.6,1.48,3.35-3.34m-2,4.06,3-3m-3,5.06,3-3m-.94,3,.94-.94M352.88,241l1.43-1.43m-.89,3,3-3m-.89,3,3-3m1.27-1.27.83-.84m-3,5.09,4.39-4.4m-3,5.06,3.27-3.27M359,245.25l3-3m.16-.16,2.23-2.23M359,247.34l3-3m2.24-2.24,2.23-2.23M359,249.43l3-3m4.33-4.33,2.23-2.23m-7.76,9.85,1.2-1.2m6.42-6.42,2.23-2.23m-.15,2.23,2.24-2.23m-.15,2.23,2.23-2.23m-.14,2.23,1-1M359,259.86l1.44-1.44M359,262l3-3M359,264l3-3m-2.88,5,2.88-2.88m.18-.18,1.49-1.49M361.2,266l.79-.79m2.27-2.27,1.48-1.49m.6,1.49,1.49-1.49m.6,1.49,1.49-1.49m.6,1.49,1.49-1.49m-13,15.08,1.85-1.85M372.61,263l1.48-1.49M359,278.65l3-3m12.7-12.7.94-.93M359,280.74l3-3m-1.3,3.39,1.3-1.3m-3,11.32,1.34-1.34M359,293.26l3-3m-3,5.06,3.66-3.66M360.43,296l1.56-1.57m1.29-1.29,1.49-1.48m.6,1.48,1.48-1.48m.6,1.48,1.49-1.48m.6,1.48,1.49-1.48m-12,14.1,1.08-1.09m11.53-11.53,1.49-1.48M359,307.87l3-3m11.73-11.73,1.48-1.48M359,310l3-3m-1.83,3.91,1.83-1.83"/></g></g></svg>